<mxfile host="app.diagrams.net" agent="Mozilla/5.0 (Macintosh; Intel Mac OS X 10_15_7) AppleWebKit/605.1.15 (KHTML, like Gecko) Version/18.0.1 Safari/605.1.15" version="24.7.17">
  <diagram name="Pagina-1" id="lUEla5uIiF-IXY3hE-Hj">
    <mxGraphModel dx="1804" dy="1828" grid="1" gridSize="10" guides="1" tooltips="1" connect="1" arrows="1" fold="1" page="1" pageScale="1" pageWidth="827" pageHeight="1169" math="0" shadow="0">
      <root>
        <mxCell id="0" />
        <mxCell id="1" parent="0" />
        <mxCell id="B6hAdmat24an9LXhmFXZ-1" value="Utente" style="rounded=0;whiteSpace=wrap;html=1;" parent="1" vertex="1">
          <mxGeometry x="200" y="-120" width="120" height="60" as="geometry" />
        </mxCell>
        <mxCell id="B6hAdmat24an9LXhmFXZ-2" value="Tessere" style="rounded=0;whiteSpace=wrap;html=1;" parent="1" vertex="1">
          <mxGeometry x="200" y="120" width="120" height="60" as="geometry" />
        </mxCell>
        <mxCell id="B6hAdmat24an9LXhmFXZ-3" value="Prestito" style="rounded=0;whiteSpace=wrap;html=1;" parent="1" vertex="1">
          <mxGeometry x="400" y="240" width="120" height="60" as="geometry" />
        </mxCell>
        <mxCell id="B6hAdmat24an9LXhmFXZ-4" value="LIbro" style="rounded=0;whiteSpace=wrap;html=1;" parent="1" vertex="1">
          <mxGeometry x="400" y="480" width="120" height="60" as="geometry" />
        </mxCell>
        <mxCell id="B6hAdmat24an9LXhmFXZ-5" value="Scaffale" style="rounded=0;whiteSpace=wrap;html=1;" parent="1" vertex="1">
          <mxGeometry x="400" y="720" width="120" height="60" as="geometry" />
        </mxCell>
        <mxCell id="B6hAdmat24an9LXhmFXZ-6" value="Sala" style="rounded=0;whiteSpace=wrap;html=1;" parent="1" vertex="1">
          <mxGeometry x="200" y="840" width="120" height="60" as="geometry" />
        </mxCell>
        <mxCell id="B6hAdmat24an9LXhmFXZ-7" value="Account" style="rounded=0;whiteSpace=wrap;html=1;" parent="1" vertex="1">
          <mxGeometry y="240" width="120" height="60" as="geometry" />
        </mxCell>
        <mxCell id="B6hAdmat24an9LXhmFXZ-8" value="Prenotazione" style="rounded=0;whiteSpace=wrap;html=1;" parent="1" vertex="1">
          <mxGeometry y="480" width="120" height="60" as="geometry" />
        </mxCell>
        <mxCell id="B6hAdmat24an9LXhmFXZ-9" value="Posto" style="rounded=0;whiteSpace=wrap;html=1;" parent="1" vertex="1">
          <mxGeometry y="720" width="120" height="60" as="geometry" />
        </mxCell>
        <mxCell id="B6hAdmat24an9LXhmFXZ-10" value="Bibliotecari" style="rounded=0;whiteSpace=wrap;html=1;" parent="1" vertex="1">
          <mxGeometry x="800" y="240" width="120" height="60" as="geometry" />
        </mxCell>
        <mxCell id="B6hAdmat24an9LXhmFXZ-11" value="Dipendenti" style="rounded=0;whiteSpace=wrap;html=1;" parent="1" vertex="1">
          <mxGeometry x="921" y="120" width="120" height="60" as="geometry" />
        </mxCell>
        <mxCell id="B6hAdmat24an9LXhmFXZ-12" value="Pulizia" style="rounded=0;whiteSpace=wrap;html=1;" parent="1" vertex="1">
          <mxGeometry x="1041" y="240" width="120" height="60" as="geometry" />
        </mxCell>
        <mxCell id="B6hAdmat24an9LXhmFXZ-13" value="Contratto" style="rounded=0;whiteSpace=wrap;html=1;" parent="1" vertex="1">
          <mxGeometry x="921" y="-100" width="120" height="60" as="geometry" />
        </mxCell>
        <mxCell id="B6hAdmat24an9LXhmFXZ-14" value="Turni" style="rounded=0;whiteSpace=wrap;html=1;" parent="1" vertex="1">
          <mxGeometry x="1320" y="120" width="120" height="60" as="geometry" />
        </mxCell>
        <mxCell id="B6hAdmat24an9LXhmFXZ-15" value="Oggetti smarriti&amp;nbsp;" style="rounded=0;whiteSpace=wrap;html=1;" parent="1" vertex="1">
          <mxGeometry x="1041" y="480" width="120" height="60" as="geometry" />
        </mxCell>
        <mxCell id="B6hAdmat24an9LXhmFXZ-16" value="Ã¨ tesserato" style="shape=rhombus;perimeter=rhombusPerimeter;whiteSpace=wrap;html=1;align=center;" parent="1" vertex="1">
          <mxGeometry x="200" width="120" height="60" as="geometry" />
        </mxCell>
        <mxCell id="B6hAdmat24an9LXhmFXZ-17" value="possiede" style="shape=rhombus;perimeter=rhombusPerimeter;whiteSpace=wrap;html=1;align=center;" parent="1" vertex="1">
          <mxGeometry y="120" width="120" height="60" as="geometry" />
        </mxCell>
        <mxCell id="B6hAdmat24an9LXhmFXZ-18" value="riservato" style="shape=rhombus;perimeter=rhombusPerimeter;whiteSpace=wrap;html=1;align=center;" parent="1" vertex="1">
          <mxGeometry y="360" width="120" height="60" as="geometry" />
        </mxCell>
        <mxCell id="B6hAdmat24an9LXhmFXZ-19" value="richiede" style="shape=rhombus;perimeter=rhombusPerimeter;whiteSpace=wrap;html=1;align=center;" parent="1" vertex="1">
          <mxGeometry x="400" y="120" width="120" height="60" as="geometry" />
        </mxCell>
        <mxCell id="B6hAdmat24an9LXhmFXZ-20" value="prestato" style="shape=rhombus;perimeter=rhombusPerimeter;whiteSpace=wrap;html=1;align=center;" parent="1" vertex="1">
          <mxGeometry x="400" y="360" width="120" height="60" as="geometry" />
        </mxCell>
        <mxCell id="B6hAdmat24an9LXhmFXZ-21" value="riposto" style="shape=rhombus;perimeter=rhombusPerimeter;whiteSpace=wrap;html=1;align=center;" parent="1" vertex="1">
          <mxGeometry x="400" y="600" width="120" height="60" as="geometry" />
        </mxCell>
        <mxCell id="B6hAdmat24an9LXhmFXZ-22" value="occupa" style="shape=rhombus;perimeter=rhombusPerimeter;whiteSpace=wrap;html=1;align=center;" parent="1" vertex="1">
          <mxGeometry x="-200" y="720" width="120" height="60" as="geometry" />
        </mxCell>
        <mxCell id="B6hAdmat24an9LXhmFXZ-23" value="situato" style="shape=rhombus;perimeter=rhombusPerimeter;whiteSpace=wrap;html=1;align=center;" parent="1" vertex="1">
          <mxGeometry y="840" width="120" height="60" as="geometry" />
        </mxCell>
        <mxCell id="B6hAdmat24an9LXhmFXZ-24" value="situato" style="shape=rhombus;perimeter=rhombusPerimeter;whiteSpace=wrap;html=1;align=center;" parent="1" vertex="1">
          <mxGeometry x="400" y="840" width="120" height="60" as="geometry" />
        </mxCell>
        <mxCell id="B6hAdmat24an9LXhmFXZ-25" value="Iscrizione" style="rounded=0;whiteSpace=wrap;html=1;" parent="1" vertex="1">
          <mxGeometry x="600" y="120" width="120" height="60" as="geometry" />
        </mxCell>
        <mxCell id="B6hAdmat24an9LXhmFXZ-26" value="registra" style="shape=rhombus;perimeter=rhombusPerimeter;whiteSpace=wrap;html=1;align=center;" parent="1" vertex="1">
          <mxGeometry x="600" y="240" width="120" height="60" as="geometry" />
        </mxCell>
        <mxCell id="B6hAdmat24an9LXhmFXZ-27" value="trovano" style="shape=rhombus;perimeter=rhombusPerimeter;whiteSpace=wrap;html=1;align=center;" parent="1" vertex="1">
          <mxGeometry x="1041" y="360" width="120" height="60" as="geometry" />
        </mxCell>
        <mxCell id="B6hAdmat24an9LXhmFXZ-28" value="assunzione" style="shape=rhombus;perimeter=rhombusPerimeter;whiteSpace=wrap;html=1;align=center;" parent="1" vertex="1">
          <mxGeometry x="920" y="10" width="120" height="60" as="geometry" />
        </mxCell>
        <mxCell id="B6hAdmat24an9LXhmFXZ-30" value="lavorano" style="shape=rhombus;perimeter=rhombusPerimeter;whiteSpace=wrap;html=1;align=center;" parent="1" vertex="1">
          <mxGeometry x="1121" y="120" width="120" height="60" as="geometry" />
        </mxCell>
        <mxCell id="B6hAdmat24an9LXhmFXZ-31" value="Registro pulizie" style="whiteSpace=wrap;html=1;" parent="1" vertex="1">
          <mxGeometry x="800" y="600" width="120" height="60" as="geometry" />
        </mxCell>
        <mxCell id="B6hAdmat24an9LXhmFXZ-32" value="hanno pulito" style="shape=rhombus;perimeter=rhombusPerimeter;whiteSpace=wrap;html=1;align=center;" parent="1" vertex="1">
          <mxGeometry x="800" y="480" width="120" height="60" as="geometry" />
        </mxCell>
        <mxCell id="B6hAdmat24an9LXhmFXZ-35" value="" style="endArrow=none;html=1;rounded=0;exitX=1;exitY=0.5;exitDx=0;exitDy=0;" parent="1" source="B6hAdmat24an9LXhmFXZ-6" edge="1">
          <mxGeometry width="50" height="50" relative="1" as="geometry">
            <mxPoint x="350" y="920" as="sourcePoint" />
            <mxPoint x="400" y="870" as="targetPoint" />
          </mxGeometry>
        </mxCell>
        <mxCell id="B6hAdmat24an9LXhmFXZ-36" value="" style="endArrow=none;html=1;rounded=0;entryX=0;entryY=0.5;entryDx=0;entryDy=0;" parent="1" target="B6hAdmat24an9LXhmFXZ-6" edge="1">
          <mxGeometry width="50" height="50" relative="1" as="geometry">
            <mxPoint x="120" y="870" as="sourcePoint" />
            <mxPoint x="170" y="820" as="targetPoint" />
          </mxGeometry>
        </mxCell>
        <mxCell id="B6hAdmat24an9LXhmFXZ-37" value="" style="endArrow=none;html=1;rounded=0;" parent="1" source="B6hAdmat24an9LXhmFXZ-9" edge="1">
          <mxGeometry width="50" height="50" relative="1" as="geometry">
            <mxPoint x="60" y="830" as="sourcePoint" />
            <mxPoint x="60" y="840" as="targetPoint" />
          </mxGeometry>
        </mxCell>
        <mxCell id="B6hAdmat24an9LXhmFXZ-41" value="" style="endArrow=none;html=1;rounded=0;" parent="1" source="B6hAdmat24an9LXhmFXZ-18" edge="1">
          <mxGeometry width="50" height="50" relative="1" as="geometry">
            <mxPoint x="60" y="470" as="sourcePoint" />
            <mxPoint x="60" y="480" as="targetPoint" />
          </mxGeometry>
        </mxCell>
        <mxCell id="B6hAdmat24an9LXhmFXZ-42" value="" style="endArrow=none;html=1;rounded=0;" parent="1" source="B6hAdmat24an9LXhmFXZ-7" edge="1">
          <mxGeometry width="50" height="50" relative="1" as="geometry">
            <mxPoint x="60" y="350" as="sourcePoint" />
            <mxPoint x="60" y="360" as="targetPoint" />
          </mxGeometry>
        </mxCell>
        <mxCell id="B6hAdmat24an9LXhmFXZ-43" value="" style="endArrow=none;html=1;rounded=0;entryX=0.5;entryY=1;entryDx=0;entryDy=0;" parent="1" target="B6hAdmat24an9LXhmFXZ-17" edge="1">
          <mxGeometry width="50" height="50" relative="1" as="geometry">
            <mxPoint x="60" y="240" as="sourcePoint" />
            <mxPoint x="110" y="190" as="targetPoint" />
          </mxGeometry>
        </mxCell>
        <mxCell id="B6hAdmat24an9LXhmFXZ-44" value="" style="endArrow=none;html=1;rounded=0;entryX=0;entryY=0.5;entryDx=0;entryDy=0;" parent="1" target="B6hAdmat24an9LXhmFXZ-2" edge="1">
          <mxGeometry width="50" height="50" relative="1" as="geometry">
            <mxPoint x="120" y="150" as="sourcePoint" />
            <mxPoint x="170" y="100" as="targetPoint" />
          </mxGeometry>
        </mxCell>
        <mxCell id="B6hAdmat24an9LXhmFXZ-45" value="" style="endArrow=none;html=1;rounded=0;entryX=0;entryY=0.5;entryDx=0;entryDy=0;" parent="1" target="B6hAdmat24an9LXhmFXZ-19" edge="1">
          <mxGeometry width="50" height="50" relative="1" as="geometry">
            <mxPoint x="320" y="150" as="sourcePoint" />
            <mxPoint x="370" y="100" as="targetPoint" />
          </mxGeometry>
        </mxCell>
        <mxCell id="B6hAdmat24an9LXhmFXZ-46" value="" style="endArrow=none;html=1;rounded=0;exitX=0.5;exitY=0;exitDx=0;exitDy=0;" parent="1" source="B6hAdmat24an9LXhmFXZ-3" edge="1">
          <mxGeometry width="50" height="50" relative="1" as="geometry">
            <mxPoint x="410" y="230" as="sourcePoint" />
            <mxPoint x="460" y="180" as="targetPoint" />
          </mxGeometry>
        </mxCell>
        <mxCell id="B6hAdmat24an9LXhmFXZ-47" value="" style="endArrow=none;html=1;rounded=0;entryX=0.5;entryY=1;entryDx=0;entryDy=0;" parent="1" target="B6hAdmat24an9LXhmFXZ-3" edge="1">
          <mxGeometry width="50" height="50" relative="1" as="geometry">
            <mxPoint x="460" y="360" as="sourcePoint" />
            <mxPoint x="510" y="310" as="targetPoint" />
          </mxGeometry>
        </mxCell>
        <mxCell id="B6hAdmat24an9LXhmFXZ-49" value="state pulite" style="shape=rhombus;perimeter=rhombusPerimeter;whiteSpace=wrap;html=1;align=center;" parent="1" vertex="1">
          <mxGeometry x="801" y="720" width="120" height="60" as="geometry" />
        </mxCell>
        <mxCell id="B6hAdmat24an9LXhmFXZ-51" value="" style="endArrow=none;html=1;rounded=0;" parent="1" edge="1">
          <mxGeometry width="50" height="50" relative="1" as="geometry">
            <mxPoint x="260" y="920" as="sourcePoint" />
            <mxPoint x="260" y="900" as="targetPoint" />
          </mxGeometry>
        </mxCell>
        <mxCell id="B6hAdmat24an9LXhmFXZ-53" value="" style="endArrow=none;html=1;rounded=0;entryX=0.5;entryY=1;entryDx=0;entryDy=0;" parent="1" target="B6hAdmat24an9LXhmFXZ-49" edge="1">
          <mxGeometry width="50" height="50" relative="1" as="geometry">
            <mxPoint x="860" y="920" as="sourcePoint" />
            <mxPoint x="860" y="900" as="targetPoint" />
          </mxGeometry>
        </mxCell>
        <mxCell id="B6hAdmat24an9LXhmFXZ-54" value="" style="endArrow=none;html=1;rounded=0;exitX=0.5;exitY=0;exitDx=0;exitDy=0;" parent="1" source="B6hAdmat24an9LXhmFXZ-24" edge="1">
          <mxGeometry width="50" height="50" relative="1" as="geometry">
            <mxPoint x="410" y="830" as="sourcePoint" />
            <mxPoint x="460" y="780" as="targetPoint" />
          </mxGeometry>
        </mxCell>
        <mxCell id="B6hAdmat24an9LXhmFXZ-55" value="" style="endArrow=none;html=1;rounded=0;exitX=0.5;exitY=0;exitDx=0;exitDy=0;" parent="1" source="B6hAdmat24an9LXhmFXZ-5" edge="1">
          <mxGeometry width="50" height="50" relative="1" as="geometry">
            <mxPoint x="410" y="710" as="sourcePoint" />
            <mxPoint x="460" y="660" as="targetPoint" />
          </mxGeometry>
        </mxCell>
        <mxCell id="B6hAdmat24an9LXhmFXZ-56" value="" style="endArrow=none;html=1;rounded=0;exitX=0.5;exitY=0;exitDx=0;exitDy=0;" parent="1" source="B6hAdmat24an9LXhmFXZ-21" edge="1">
          <mxGeometry width="50" height="50" relative="1" as="geometry">
            <mxPoint x="410" y="590" as="sourcePoint" />
            <mxPoint x="460" y="540" as="targetPoint" />
          </mxGeometry>
        </mxCell>
        <mxCell id="B6hAdmat24an9LXhmFXZ-58" value="" style="endArrow=none;html=1;rounded=0;entryX=0.5;entryY=1;entryDx=0;entryDy=0;" parent="1" target="B6hAdmat24an9LXhmFXZ-25" edge="1">
          <mxGeometry width="50" height="50" relative="1" as="geometry">
            <mxPoint x="660" y="240" as="sourcePoint" />
            <mxPoint x="710" y="190" as="targetPoint" />
          </mxGeometry>
        </mxCell>
        <mxCell id="B6hAdmat24an9LXhmFXZ-59" value="" style="endArrow=none;html=1;rounded=0;entryX=0;entryY=0.5;entryDx=0;entryDy=0;" parent="1" target="B6hAdmat24an9LXhmFXZ-10" edge="1">
          <mxGeometry width="50" height="50" relative="1" as="geometry">
            <mxPoint x="720" y="270" as="sourcePoint" />
            <mxPoint x="770" y="220" as="targetPoint" />
          </mxGeometry>
        </mxCell>
        <mxCell id="B6hAdmat24an9LXhmFXZ-60" value="" style="endArrow=none;html=1;rounded=0;" parent="1" edge="1">
          <mxGeometry width="50" height="50" relative="1" as="geometry">
            <mxPoint x="860" y="240" as="sourcePoint" />
            <mxPoint x="860" y="220" as="targetPoint" />
          </mxGeometry>
        </mxCell>
        <mxCell id="B6hAdmat24an9LXhmFXZ-61" value="" style="endArrow=none;html=1;rounded=0;" parent="1" edge="1">
          <mxGeometry width="50" height="50" relative="1" as="geometry">
            <mxPoint x="1100" y="240" as="sourcePoint" />
            <mxPoint x="1100" y="220" as="targetPoint" />
          </mxGeometry>
        </mxCell>
        <mxCell id="B6hAdmat24an9LXhmFXZ-62" value="" style="endArrow=none;html=1;rounded=0;" parent="1" edge="1">
          <mxGeometry width="50" height="50" relative="1" as="geometry">
            <mxPoint x="860" y="220" as="sourcePoint" />
            <mxPoint x="1100" y="220" as="targetPoint" />
          </mxGeometry>
        </mxCell>
        <mxCell id="B6hAdmat24an9LXhmFXZ-63" value="" style="shape=flexArrow;endArrow=classic;html=1;rounded=0;strokeColor=#000000;fillColor=#000000;" parent="1" edge="1">
          <mxGeometry width="50" height="50" relative="1" as="geometry">
            <mxPoint x="980" y="220" as="sourcePoint" />
            <mxPoint x="979.82" y="180" as="targetPoint" />
          </mxGeometry>
        </mxCell>
        <mxCell id="B6hAdmat24an9LXhmFXZ-64" value="" style="endArrow=none;html=1;rounded=0;entryX=0.5;entryY=1;entryDx=0;entryDy=0;" parent="1" target="B6hAdmat24an9LXhmFXZ-28" edge="1">
          <mxGeometry width="50" height="50" relative="1" as="geometry">
            <mxPoint x="980" y="120" as="sourcePoint" />
            <mxPoint x="1030" y="70" as="targetPoint" />
          </mxGeometry>
        </mxCell>
        <mxCell id="B6hAdmat24an9LXhmFXZ-65" value="" style="endArrow=none;html=1;rounded=0;entryX=0.5;entryY=1;entryDx=0;entryDy=0;" parent="1" target="B6hAdmat24an9LXhmFXZ-13" edge="1">
          <mxGeometry width="50" height="50" relative="1" as="geometry">
            <mxPoint x="980" y="10" as="sourcePoint" />
            <mxPoint x="1030" y="-40" as="targetPoint" />
          </mxGeometry>
        </mxCell>
        <mxCell id="B6hAdmat24an9LXhmFXZ-66" value="" style="endArrow=none;html=1;rounded=0;entryX=0;entryY=0.5;entryDx=0;entryDy=0;" parent="1" target="B6hAdmat24an9LXhmFXZ-30" edge="1">
          <mxGeometry width="50" height="50" relative="1" as="geometry">
            <mxPoint x="1040" y="150" as="sourcePoint" />
            <mxPoint x="1090" y="100" as="targetPoint" />
          </mxGeometry>
        </mxCell>
        <mxCell id="B6hAdmat24an9LXhmFXZ-67" value="" style="endArrow=none;html=1;rounded=0;entryX=0;entryY=0.5;entryDx=0;entryDy=0;" parent="1" target="B6hAdmat24an9LXhmFXZ-14" edge="1">
          <mxGeometry width="50" height="50" relative="1" as="geometry">
            <mxPoint x="1240" y="150" as="sourcePoint" />
            <mxPoint x="1290" y="100" as="targetPoint" />
          </mxGeometry>
        </mxCell>
        <mxCell id="B6hAdmat24an9LXhmFXZ-68" value="" style="endArrow=none;html=1;rounded=0;" parent="1" source="B6hAdmat24an9LXhmFXZ-16" edge="1">
          <mxGeometry width="50" height="50" relative="1" as="geometry">
            <mxPoint x="260" y="110" as="sourcePoint" />
            <mxPoint x="260" y="120" as="targetPoint" />
          </mxGeometry>
        </mxCell>
        <mxCell id="B6hAdmat24an9LXhmFXZ-69" value="" style="endArrow=none;html=1;rounded=0;entryX=0.5;entryY=1;entryDx=0;entryDy=0;" parent="1" target="B6hAdmat24an9LXhmFXZ-1" edge="1">
          <mxGeometry width="50" height="50" relative="1" as="geometry">
            <mxPoint x="260" as="sourcePoint" />
            <mxPoint x="310" y="-50" as="targetPoint" />
          </mxGeometry>
        </mxCell>
        <mxCell id="B6hAdmat24an9LXhmFXZ-71" value="" style="endArrow=none;html=1;rounded=0;entryX=0.485;entryY=1.026;entryDx=0;entryDy=0;entryPerimeter=0;" parent="1" target="B6hAdmat24an9LXhmFXZ-12" edge="1">
          <mxGeometry width="50" height="50" relative="1" as="geometry">
            <mxPoint x="1100" y="360" as="sourcePoint" />
            <mxPoint x="1150" y="310" as="targetPoint" />
          </mxGeometry>
        </mxCell>
        <mxCell id="B6hAdmat24an9LXhmFXZ-72" value="" style="endArrow=none;html=1;rounded=0;entryX=0.5;entryY=1;entryDx=0;entryDy=0;" parent="1" target="B6hAdmat24an9LXhmFXZ-27" edge="1">
          <mxGeometry width="50" height="50" relative="1" as="geometry">
            <mxPoint x="1100" y="480" as="sourcePoint" />
            <mxPoint x="1150" y="430" as="targetPoint" />
          </mxGeometry>
        </mxCell>
        <mxCell id="B6hAdmat24an9LXhmFXZ-74" value="" style="endArrow=none;html=1;rounded=0;exitX=0.5;exitY=0;exitDx=0;exitDy=0;" parent="1" source="B6hAdmat24an9LXhmFXZ-31" edge="1">
          <mxGeometry width="50" height="50" relative="1" as="geometry">
            <mxPoint x="810" y="590" as="sourcePoint" />
            <mxPoint x="860" y="540" as="targetPoint" />
          </mxGeometry>
        </mxCell>
        <mxCell id="B6hAdmat24an9LXhmFXZ-75" value="" style="endArrow=none;html=1;rounded=0;" parent="1" edge="1">
          <mxGeometry width="50" height="50" relative="1" as="geometry">
            <mxPoint x="260" y="920" as="sourcePoint" />
            <mxPoint x="400" y="920" as="targetPoint" />
          </mxGeometry>
        </mxCell>
        <mxCell id="B6hAdmat24an9LXhmFXZ-77" value="" style="endArrow=none;html=1;rounded=0;" parent="1" edge="1">
          <mxGeometry width="50" height="50" relative="1" as="geometry">
            <mxPoint x="520" y="920" as="sourcePoint" />
            <mxPoint x="860" y="920" as="targetPoint" />
          </mxGeometry>
        </mxCell>
        <mxCell id="B6hAdmat24an9LXhmFXZ-78" value="" style="endArrow=none;html=1;rounded=0;" parent="1" edge="1">
          <mxGeometry width="50" height="50" relative="1" as="geometry">
            <mxPoint x="400" y="950" as="sourcePoint" />
            <mxPoint x="400" y="920" as="targetPoint" />
          </mxGeometry>
        </mxCell>
        <mxCell id="B6hAdmat24an9LXhmFXZ-79" value="" style="endArrow=none;html=1;rounded=0;" parent="1" edge="1">
          <mxGeometry width="50" height="50" relative="1" as="geometry">
            <mxPoint x="400" y="950" as="sourcePoint" />
            <mxPoint x="520" y="950" as="targetPoint" />
          </mxGeometry>
        </mxCell>
        <mxCell id="B6hAdmat24an9LXhmFXZ-80" value="" style="endArrow=none;html=1;rounded=0;" parent="1" edge="1">
          <mxGeometry width="50" height="50" relative="1" as="geometry">
            <mxPoint x="520" y="950" as="sourcePoint" />
            <mxPoint x="520" y="920" as="targetPoint" />
          </mxGeometry>
        </mxCell>
        <mxCell id="B6hAdmat24an9LXhmFXZ-81" value="" style="endArrow=none;html=1;rounded=0;entryX=0.5;entryY=1;entryDx=0;entryDy=0;" parent="1" target="B6hAdmat24an9LXhmFXZ-31" edge="1">
          <mxGeometry width="50" height="50" relative="1" as="geometry">
            <mxPoint x="860" y="720" as="sourcePoint" />
            <mxPoint x="910" y="670" as="targetPoint" />
          </mxGeometry>
        </mxCell>
        <mxCell id="B6hAdmat24an9LXhmFXZ-82" value="Ã¨ registrata" style="shape=rhombus;perimeter=rhombusPerimeter;whiteSpace=wrap;html=1;align=center;" parent="1" vertex="1">
          <mxGeometry x="600" width="120" height="60" as="geometry" />
        </mxCell>
        <mxCell id="B6hAdmat24an9LXhmFXZ-85" value="" style="endArrow=none;html=1;rounded=0;entryX=0.5;entryY=1;entryDx=0;entryDy=0;" parent="1" target="B6hAdmat24an9LXhmFXZ-82" edge="1">
          <mxGeometry width="50" height="50" relative="1" as="geometry">
            <mxPoint x="660" y="120" as="sourcePoint" />
            <mxPoint x="710" y="70" as="targetPoint" />
          </mxGeometry>
        </mxCell>
        <mxCell id="B6hAdmat24an9LXhmFXZ-86" value="" style="endArrow=none;html=1;rounded=0;" parent="1" edge="1">
          <mxGeometry width="50" height="50" relative="1" as="geometry">
            <mxPoint x="320" y="130" as="sourcePoint" />
            <mxPoint x="360" y="130" as="targetPoint" />
          </mxGeometry>
        </mxCell>
        <mxCell id="B6hAdmat24an9LXhmFXZ-87" value="" style="endArrow=none;html=1;rounded=0;" parent="1" edge="1">
          <mxGeometry width="50" height="50" relative="1" as="geometry">
            <mxPoint x="360" y="130" as="sourcePoint" />
            <mxPoint x="360" y="30" as="targetPoint" />
          </mxGeometry>
        </mxCell>
        <mxCell id="B6hAdmat24an9LXhmFXZ-88" value="" style="endArrow=none;html=1;rounded=0;entryX=0;entryY=0.5;entryDx=0;entryDy=0;" parent="1" target="B6hAdmat24an9LXhmFXZ-82" edge="1">
          <mxGeometry width="50" height="50" relative="1" as="geometry">
            <mxPoint x="360" y="30" as="sourcePoint" />
            <mxPoint x="410" y="-20" as="targetPoint" />
          </mxGeometry>
        </mxCell>
        <mxCell id="B6hAdmat24an9LXhmFXZ-92" value="" style="endArrow=none;html=1;rounded=0;entryX=0;entryY=0.5;entryDx=0;entryDy=0;" parent="1" target="B6hAdmat24an9LXhmFXZ-12" edge="1">
          <mxGeometry width="50" height="50" relative="1" as="geometry">
            <mxPoint x="1000" y="270" as="sourcePoint" />
            <mxPoint x="1050" y="220" as="targetPoint" />
          </mxGeometry>
        </mxCell>
        <mxCell id="B6hAdmat24an9LXhmFXZ-93" value="" style="endArrow=none;html=1;rounded=0;" parent="1" edge="1">
          <mxGeometry width="50" height="50" relative="1" as="geometry">
            <mxPoint x="1000" y="390" as="sourcePoint" />
            <mxPoint x="1000" y="270" as="targetPoint" />
          </mxGeometry>
        </mxCell>
        <mxCell id="B6hAdmat24an9LXhmFXZ-94" value="" style="endArrow=none;html=1;rounded=0;" parent="1" edge="1">
          <mxGeometry width="50" height="50" relative="1" as="geometry">
            <mxPoint x="860" y="480" as="sourcePoint" />
            <mxPoint x="860" y="390" as="targetPoint" />
          </mxGeometry>
        </mxCell>
        <mxCell id="B6hAdmat24an9LXhmFXZ-95" value="" style="endArrow=none;html=1;rounded=0;" parent="1" edge="1">
          <mxGeometry width="50" height="50" relative="1" as="geometry">
            <mxPoint x="860" y="390" as="sourcePoint" />
            <mxPoint x="1000" y="390" as="targetPoint" />
          </mxGeometry>
        </mxCell>
        <mxCell id="BqIFalrDcJLT26Kmx2qs-1" value="nome" style="text;html=1;align=center;verticalAlign=middle;resizable=0;points=[];autosize=1;strokeColor=none;fillColor=none;" vertex="1" parent="1">
          <mxGeometry x="113" y="-125.5" width="50" height="30" as="geometry" />
        </mxCell>
        <mxCell id="BqIFalrDcJLT26Kmx2qs-2" value="cognome" style="text;html=1;align=center;verticalAlign=middle;resizable=0;points=[];autosize=1;strokeColor=none;fillColor=none;" vertex="1" parent="1">
          <mxGeometry x="93" y="-84" width="70" height="30" as="geometry" />
        </mxCell>
        <mxCell id="BqIFalrDcJLT26Kmx2qs-3" value="n.tessera" style="text;html=1;align=center;verticalAlign=middle;resizable=0;points=[];autosize=1;strokeColor=none;fillColor=none;" vertex="1" parent="1">
          <mxGeometry x="360" y="-92.5" width="70" height="30" as="geometry" />
        </mxCell>
        <mxCell id="BqIFalrDcJLT26Kmx2qs-4" value="data nascita" style="text;html=1;align=center;verticalAlign=middle;resizable=0;points=[];autosize=1;strokeColor=none;fillColor=none;" vertex="1" parent="1">
          <mxGeometry x="351.5" y="-130" width="90" height="30" as="geometry" />
        </mxCell>
        <mxCell id="BqIFalrDcJLT26Kmx2qs-5" value="luogo nascita" style="text;html=1;align=center;verticalAlign=middle;resizable=0;points=[];autosize=1;strokeColor=none;fillColor=none;" vertex="1" parent="1">
          <mxGeometry x="124" y="-43" width="90" height="30" as="geometry" />
        </mxCell>
        <mxCell id="BqIFalrDcJLT26Kmx2qs-6" value="id tessera" style="text;html=1;align=center;verticalAlign=middle;resizable=0;points=[];autosize=1;strokeColor=none;fillColor=none;" vertex="1" parent="1">
          <mxGeometry x="147" y="208" width="80" height="30" as="geometry" />
        </mxCell>
        <mxCell id="BqIFalrDcJLT26Kmx2qs-8" value="data inizio" style="text;html=1;align=center;verticalAlign=middle;resizable=0;points=[];autosize=1;strokeColor=none;fillColor=none;" vertex="1" parent="1">
          <mxGeometry x="315" y="191.5" width="80" height="30" as="geometry" />
        </mxCell>
        <mxCell id="BqIFalrDcJLT26Kmx2qs-10" value="data scadenza" style="text;html=1;align=center;verticalAlign=middle;resizable=0;points=[];autosize=1;strokeColor=none;fillColor=none;" vertex="1" parent="1">
          <mxGeometry x="205" y="218" width="100" height="30" as="geometry" />
        </mxCell>
        <mxCell id="BqIFalrDcJLT26Kmx2qs-11" value="nome utente" style="text;html=1;align=center;verticalAlign=middle;resizable=0;points=[];autosize=1;strokeColor=none;fillColor=none;" vertex="1" parent="1">
          <mxGeometry x="-50" y="183" width="90" height="30" as="geometry" />
        </mxCell>
        <mxCell id="BqIFalrDcJLT26Kmx2qs-12" value="data&amp;nbsp;&lt;div&gt;attivazione&lt;/div&gt;" style="text;html=1;align=center;verticalAlign=middle;resizable=0;points=[];autosize=1;strokeColor=none;fillColor=none;" vertex="1" parent="1">
          <mxGeometry x="-115" y="239" width="80" height="40" as="geometry" />
        </mxCell>
        <mxCell id="BqIFalrDcJLT26Kmx2qs-13" value="id.account" style="text;html=1;align=center;verticalAlign=middle;resizable=0;points=[];autosize=1;strokeColor=none;fillColor=none;" vertex="1" parent="1">
          <mxGeometry x="-55.5" y="330" width="80" height="30" as="geometry" />
        </mxCell>
        <mxCell id="BqIFalrDcJLT26Kmx2qs-16" value="Relationship" style="shape=rhombus;perimeter=rhombusPerimeter;whiteSpace=wrap;html=1;align=center;" vertex="1" parent="1">
          <mxGeometry x="-200" y="480" width="120" height="60" as="geometry" />
        </mxCell>
        <mxCell id="BqIFalrDcJLT26Kmx2qs-17" value="" style="endArrow=none;html=1;rounded=0;exitX=0.5;exitY=0;exitDx=0;exitDy=0;" edge="1" parent="1" source="BqIFalrDcJLT26Kmx2qs-18">
          <mxGeometry width="50" height="50" relative="1" as="geometry">
            <mxPoint x="-140" y="580" as="sourcePoint" />
            <mxPoint x="-140" y="540" as="targetPoint" />
          </mxGeometry>
        </mxCell>
        <mxCell id="BqIFalrDcJLT26Kmx2qs-18" value="Prenotato" style="rounded=0;whiteSpace=wrap;html=1;" vertex="1" parent="1">
          <mxGeometry x="-200" y="600" width="120" height="60" as="geometry" />
        </mxCell>
        <mxCell id="BqIFalrDcJLT26Kmx2qs-19" value="" style="endArrow=none;html=1;rounded=0;entryX=0.5;entryY=1;entryDx=0;entryDy=0;" edge="1" parent="1" target="BqIFalrDcJLT26Kmx2qs-18">
          <mxGeometry width="50" height="50" relative="1" as="geometry">
            <mxPoint x="-140" y="720" as="sourcePoint" />
            <mxPoint x="-90" y="670" as="targetPoint" />
          </mxGeometry>
        </mxCell>
        <mxCell id="BqIFalrDcJLT26Kmx2qs-20" value="" style="endArrow=none;html=1;rounded=0;entryX=0;entryY=0.5;entryDx=0;entryDy=0;" edge="1" parent="1" target="B6hAdmat24an9LXhmFXZ-9">
          <mxGeometry width="50" height="50" relative="1" as="geometry">
            <mxPoint x="-80" y="750" as="sourcePoint" />
            <mxPoint x="-30" y="700" as="targetPoint" />
          </mxGeometry>
        </mxCell>
        <mxCell id="BqIFalrDcJLT26Kmx2qs-21" value="" style="endArrow=none;html=1;rounded=0;entryX=0;entryY=0.5;entryDx=0;entryDy=0;" edge="1" parent="1" target="B6hAdmat24an9LXhmFXZ-8">
          <mxGeometry width="50" height="50" relative="1" as="geometry">
            <mxPoint x="-80" y="510" as="sourcePoint" />
            <mxPoint x="-30" y="460" as="targetPoint" />
          </mxGeometry>
        </mxCell>
        <mxCell id="BqIFalrDcJLT26Kmx2qs-22" value="id.prenotazione" style="text;html=1;align=center;verticalAlign=middle;resizable=0;points=[];autosize=1;strokeColor=none;fillColor=none;" vertex="1" parent="1">
          <mxGeometry x="-350" y="600" width="110" height="30" as="geometry" />
        </mxCell>
        <mxCell id="BqIFalrDcJLT26Kmx2qs-24" value="id posto" style="text;html=1;align=center;verticalAlign=middle;resizable=0;points=[];autosize=1;strokeColor=none;fillColor=none;" vertex="1" parent="1">
          <mxGeometry x="-312" y="631" width="70" height="30" as="geometry" />
        </mxCell>
        <mxCell id="BqIFalrDcJLT26Kmx2qs-25" value="id posto" style="text;html=1;align=center;verticalAlign=middle;resizable=0;points=[];autosize=1;strokeColor=none;fillColor=none;" vertex="1" parent="1">
          <mxGeometry x="90" y="657.5" width="70" height="30" as="geometry" />
        </mxCell>
        <mxCell id="BqIFalrDcJLT26Kmx2qs-27" value="nome sala" style="text;html=1;align=center;verticalAlign=middle;resizable=0;points=[];autosize=1;strokeColor=none;fillColor=none;" vertex="1" parent="1">
          <mxGeometry x="-31" y="656.5" width="80" height="30" as="geometry" />
        </mxCell>
        <mxCell id="BqIFalrDcJLT26Kmx2qs-28" value="nome sala" style="text;html=1;align=center;verticalAlign=middle;resizable=0;points=[];autosize=1;strokeColor=none;fillColor=none;" vertex="1" parent="1">
          <mxGeometry x="136.5" y="790" width="80" height="30" as="geometry" />
        </mxCell>
        <mxCell id="BqIFalrDcJLT26Kmx2qs-29" value="Registro prestiti" style="rounded=0;whiteSpace=wrap;html=1;" vertex="1" parent="1">
          <mxGeometry x="600" y="360" width="120" height="60" as="geometry" />
        </mxCell>
        <mxCell id="BqIFalrDcJLT26Kmx2qs-30" value="prestato" style="shape=rhombus;perimeter=rhombusPerimeter;whiteSpace=wrap;html=1;align=center;" vertex="1" parent="1">
          <mxGeometry x="600" y="480" width="120" height="60" as="geometry" />
        </mxCell>
        <mxCell id="BqIFalrDcJLT26Kmx2qs-31" value="" style="endArrow=none;html=1;rounded=0;entryX=0;entryY=0.5;entryDx=0;entryDy=0;" edge="1" parent="1" target="BqIFalrDcJLT26Kmx2qs-29">
          <mxGeometry width="50" height="50" relative="1" as="geometry">
            <mxPoint x="520" y="390" as="sourcePoint" />
            <mxPoint x="570" y="340" as="targetPoint" />
          </mxGeometry>
        </mxCell>
        <mxCell id="BqIFalrDcJLT26Kmx2qs-32" value="" style="endArrow=none;html=1;rounded=0;entryX=0;entryY=0.5;entryDx=0;entryDy=0;" edge="1" parent="1" target="BqIFalrDcJLT26Kmx2qs-30">
          <mxGeometry width="50" height="50" relative="1" as="geometry">
            <mxPoint x="520" y="510" as="sourcePoint" />
            <mxPoint x="570" y="460" as="targetPoint" />
          </mxGeometry>
        </mxCell>
        <mxCell id="BqIFalrDcJLT26Kmx2qs-33" value="" style="endArrow=none;html=1;rounded=0;" edge="1" parent="1" source="BqIFalrDcJLT26Kmx2qs-29">
          <mxGeometry width="50" height="50" relative="1" as="geometry">
            <mxPoint x="660" y="470" as="sourcePoint" />
            <mxPoint x="660" y="480" as="targetPoint" />
          </mxGeometry>
        </mxCell>
        <mxCell id="BqIFalrDcJLT26Kmx2qs-34" value="id prestito" style="text;html=1;align=center;verticalAlign=middle;resizable=0;points=[];autosize=1;strokeColor=none;fillColor=none;" vertex="1" parent="1">
          <mxGeometry x="561" y="319.5" width="80" height="30" as="geometry" />
        </mxCell>
        <mxCell id="BqIFalrDcJLT26Kmx2qs-35" value="id libro" style="text;html=1;align=center;verticalAlign=middle;resizable=0;points=[];autosize=1;strokeColor=none;fillColor=none;" vertex="1" parent="1">
          <mxGeometry x="705" y="319.5" width="60" height="30" as="geometry" />
        </mxCell>
        <mxCell id="BqIFalrDcJLT26Kmx2qs-36" value="nome sala" style="text;html=1;align=center;verticalAlign=middle;resizable=0;points=[];autosize=1;strokeColor=none;fillColor=none;" vertex="1" parent="1">
          <mxGeometry x="564" y="760" width="80" height="30" as="geometry" />
        </mxCell>
        <mxCell id="BqIFalrDcJLT26Kmx2qs-37" value="id turno" style="text;html=1;align=center;verticalAlign=middle;resizable=0;points=[];autosize=1;strokeColor=none;fillColor=none;" vertex="1" parent="1">
          <mxGeometry x="1387" y="64" width="60" height="30" as="geometry" />
        </mxCell>
        <mxCell id="BqIFalrDcJLT26Kmx2qs-38" value="orario inizio" style="text;html=1;align=center;verticalAlign=middle;resizable=0;points=[];autosize=1;strokeColor=none;fillColor=none;" vertex="1" parent="1">
          <mxGeometry x="1298.5" y="208" width="80" height="30" as="geometry" />
        </mxCell>
        <mxCell id="BqIFalrDcJLT26Kmx2qs-39" value="orario fine" style="text;html=1;align=center;verticalAlign=middle;resizable=0;points=[];autosize=1;strokeColor=none;fillColor=none;" vertex="1" parent="1">
          <mxGeometry x="1377" y="208" width="80" height="30" as="geometry" />
        </mxCell>
        <mxCell id="BqIFalrDcJLT26Kmx2qs-40" value="giorni" style="text;html=1;align=center;verticalAlign=middle;resizable=0;points=[];autosize=1;strokeColor=none;fillColor=none;" vertex="1" parent="1">
          <mxGeometry x="1313.5" y="64" width="50" height="30" as="geometry" />
        </mxCell>
        <mxCell id="BqIFalrDcJLT26Kmx2qs-41" value="nome&amp;nbsp;" style="text;html=1;align=center;verticalAlign=middle;resizable=0;points=[];autosize=1;strokeColor=none;fillColor=none;" vertex="1" parent="1">
          <mxGeometry x="852" y="-30" width="60" height="30" as="geometry" />
        </mxCell>
        <mxCell id="BqIFalrDcJLT26Kmx2qs-42" value="cognome" style="text;html=1;align=center;verticalAlign=middle;resizable=0;points=[];autosize=1;strokeColor=none;fillColor=none;" vertex="1" parent="1">
          <mxGeometry x="824" y="-60" width="70" height="30" as="geometry" />
        </mxCell>
        <mxCell id="BqIFalrDcJLT26Kmx2qs-43" value="tipo contratto" style="text;html=1;align=center;verticalAlign=middle;resizable=0;points=[];autosize=1;strokeColor=none;fillColor=none;" vertex="1" parent="1">
          <mxGeometry x="1018" y="-34.5" width="90" height="30" as="geometry" />
        </mxCell>
        <mxCell id="BqIFalrDcJLT26Kmx2qs-44" value="stipendio" style="text;html=1;align=center;verticalAlign=middle;resizable=0;points=[];autosize=1;strokeColor=none;fillColor=none;" vertex="1" parent="1">
          <mxGeometry x="897" y="-20" width="70" height="30" as="geometry" />
        </mxCell>
        <mxCell id="BqIFalrDcJLT26Kmx2qs-45" value="id contratto" style="text;html=1;align=center;verticalAlign=middle;resizable=0;points=[];autosize=1;strokeColor=none;fillColor=none;" vertex="1" parent="1">
          <mxGeometry x="810" y="-105" width="80" height="30" as="geometry" />
        </mxCell>
        <mxCell id="BqIFalrDcJLT26Kmx2qs-46" value="data inizio" style="text;html=1;align=center;verticalAlign=middle;resizable=0;points=[];autosize=1;strokeColor=none;fillColor=none;" vertex="1" parent="1">
          <mxGeometry x="1066" y="-70" width="80" height="30" as="geometry" />
        </mxCell>
        <mxCell id="BqIFalrDcJLT26Kmx2qs-47" value="data fine" style="text;html=1;align=center;verticalAlign=middle;resizable=0;points=[];autosize=1;strokeColor=none;fillColor=none;" vertex="1" parent="1">
          <mxGeometry x="1070" y="-104" width="70" height="30" as="geometry" />
        </mxCell>
        <mxCell id="BqIFalrDcJLT26Kmx2qs-48" value="id posto" style="text;html=1;align=center;verticalAlign=middle;resizable=0;points=[];autosize=1;strokeColor=none;fillColor=none;" vertex="1" parent="1">
          <mxGeometry x="1190" y="488" width="70" height="30" as="geometry" />
        </mxCell>
        <mxCell id="BqIFalrDcJLT26Kmx2qs-49" value="data ritrovamento" style="text;html=1;align=center;verticalAlign=middle;resizable=0;points=[];autosize=1;strokeColor=none;fillColor=none;" vertex="1" parent="1">
          <mxGeometry x="1190" y="518" width="120" height="30" as="geometry" />
        </mxCell>
        <mxCell id="BqIFalrDcJLT26Kmx2qs-50" value="oggetto di valore" style="text;html=1;align=center;verticalAlign=middle;resizable=0;points=[];autosize=1;strokeColor=none;fillColor=none;" vertex="1" parent="1">
          <mxGeometry x="1064" y="560" width="110" height="30" as="geometry" />
        </mxCell>
        <mxCell id="BqIFalrDcJLT26Kmx2qs-51" value="sale pulite" style="text;html=1;align=center;verticalAlign=middle;resizable=0;points=[];autosize=1;strokeColor=none;fillColor=none;" vertex="1" parent="1">
          <mxGeometry x="967" y="590" width="80" height="30" as="geometry" />
        </mxCell>
        <mxCell id="BqIFalrDcJLT26Kmx2qs-53" value="dipendenti" style="text;html=1;align=center;verticalAlign=middle;resizable=0;points=[];autosize=1;strokeColor=none;fillColor=none;" vertex="1" parent="1">
          <mxGeometry x="957.5" y="630" width="80" height="30" as="geometry" />
        </mxCell>
        <mxCell id="BqIFalrDcJLT26Kmx2qs-54" value="data" style="text;html=1;align=center;verticalAlign=middle;resizable=0;points=[];autosize=1;strokeColor=none;fillColor=none;" vertex="1" parent="1">
          <mxGeometry x="940" y="680" width="50" height="30" as="geometry" />
        </mxCell>
        <mxCell id="BqIFalrDcJLT26Kmx2qs-55" value="n.tessera" style="text;html=1;align=center;verticalAlign=middle;resizable=0;points=[];autosize=1;strokeColor=none;fillColor=none;" vertex="1" parent="1">
          <mxGeometry x="755" y="110" width="70" height="30" as="geometry" />
        </mxCell>
        <mxCell id="BqIFalrDcJLT26Kmx2qs-56" value="badge" style="text;html=1;align=center;verticalAlign=middle;resizable=0;points=[];autosize=1;strokeColor=none;fillColor=none;" vertex="1" parent="1">
          <mxGeometry x="760" y="158" width="60" height="30" as="geometry" />
        </mxCell>
        <mxCell id="BqIFalrDcJLT26Kmx2qs-57" value="id presito" style="text;html=1;align=center;verticalAlign=middle;resizable=0;points=[];autosize=1;strokeColor=none;fillColor=none;" vertex="1" parent="1">
          <mxGeometry x="294" y="239" width="70" height="30" as="geometry" />
        </mxCell>
        <mxCell id="BqIFalrDcJLT26Kmx2qs-58" value="inizio&lt;div&gt;&amp;nbsp;prestito&lt;/div&gt;" style="text;html=1;align=center;verticalAlign=middle;resizable=0;points=[];autosize=1;strokeColor=none;fillColor=none;" vertex="1" parent="1">
          <mxGeometry x="361.5" y="321" width="70" height="40" as="geometry" />
        </mxCell>
        <mxCell id="BqIFalrDcJLT26Kmx2qs-59" value="durata&amp;nbsp;&lt;div&gt;prestito&lt;/div&gt;" style="text;html=1;align=center;verticalAlign=middle;resizable=0;points=[];autosize=1;strokeColor=none;fillColor=none;" vertex="1" parent="1">
          <mxGeometry x="490" y="309.5" width="60" height="40" as="geometry" />
        </mxCell>
        <mxCell id="BqIFalrDcJLT26Kmx2qs-60" value="id tessera" style="text;html=1;align=center;verticalAlign=middle;resizable=0;points=[];autosize=1;strokeColor=none;fillColor=none;" vertex="1" parent="1">
          <mxGeometry x="291.5" y="281" width="80" height="30" as="geometry" />
        </mxCell>
        <mxCell id="BqIFalrDcJLT26Kmx2qs-61" value="id libro" style="text;html=1;align=center;verticalAlign=middle;resizable=0;points=[];autosize=1;strokeColor=none;fillColor=none;" vertex="1" parent="1">
          <mxGeometry x="378" y="437.5" width="60" height="30" as="geometry" />
        </mxCell>
        <mxCell id="BqIFalrDcJLT26Kmx2qs-62" value="nome libro" style="text;html=1;align=center;verticalAlign=middle;resizable=0;points=[];autosize=1;strokeColor=none;fillColor=none;" vertex="1" parent="1">
          <mxGeometry x="295" y="458" width="80" height="30" as="geometry" />
        </mxCell>
        <mxCell id="BqIFalrDcJLT26Kmx2qs-63" value="genere" style="text;html=1;align=center;verticalAlign=middle;resizable=0;points=[];autosize=1;strokeColor=none;fillColor=none;" vertex="1" parent="1">
          <mxGeometry x="302.5" y="489" width="60" height="30" as="geometry" />
        </mxCell>
        <mxCell id="BqIFalrDcJLT26Kmx2qs-64" value="autore" style="text;html=1;align=center;verticalAlign=middle;resizable=0;points=[];autosize=1;strokeColor=none;fillColor=none;" vertex="1" parent="1">
          <mxGeometry x="300" y="527.5" width="60" height="30" as="geometry" />
        </mxCell>
        <mxCell id="BqIFalrDcJLT26Kmx2qs-65" value="scaffale" style="text;html=1;align=center;verticalAlign=middle;resizable=0;points=[];autosize=1;strokeColor=none;fillColor=none;" vertex="1" parent="1">
          <mxGeometry x="340" y="560" width="60" height="30" as="geometry" />
        </mxCell>
        <mxCell id="BqIFalrDcJLT26Kmx2qs-66" value="id scaffale" style="text;html=1;align=center;verticalAlign=middle;resizable=0;points=[];autosize=1;strokeColor=none;fillColor=none;" vertex="1" parent="1">
          <mxGeometry x="563" y="720" width="80" height="30" as="geometry" />
        </mxCell>
        <mxCell id="BqIFalrDcJLT26Kmx2qs-67" value="id prenotazione" style="text;html=1;align=center;verticalAlign=middle;resizable=0;points=[];autosize=1;strokeColor=none;fillColor=none;" vertex="1" parent="1">
          <mxGeometry x="-80" y="551.5" width="110" height="30" as="geometry" />
        </mxCell>
        <mxCell id="BqIFalrDcJLT26Kmx2qs-68" value="id tessera" style="text;html=1;align=center;verticalAlign=middle;resizable=0;points=[];autosize=1;strokeColor=none;fillColor=none;" vertex="1" parent="1">
          <mxGeometry x="49" y="560" width="80" height="30" as="geometry" />
        </mxCell>
        <mxCell id="BqIFalrDcJLT26Kmx2qs-69" value="inizio" style="text;html=1;align=center;verticalAlign=middle;resizable=0;points=[];autosize=1;strokeColor=none;fillColor=none;" vertex="1" parent="1">
          <mxGeometry x="153" y="471.5" width="50" height="30" as="geometry" />
        </mxCell>
        <mxCell id="BqIFalrDcJLT26Kmx2qs-70" value="fine" style="text;html=1;align=center;verticalAlign=middle;resizable=0;points=[];autosize=1;strokeColor=none;fillColor=none;" vertex="1" parent="1">
          <mxGeometry x="158" y="497.5" width="40" height="30" as="geometry" />
        </mxCell>
        <mxCell id="BqIFalrDcJLT26Kmx2qs-71" value="giorno" style="text;html=1;align=center;verticalAlign=middle;resizable=0;points=[];autosize=1;strokeColor=none;fillColor=none;" vertex="1" parent="1">
          <mxGeometry x="136.5" y="540" width="60" height="30" as="geometry" />
        </mxCell>
        <mxCell id="BqIFalrDcJLT26Kmx2qs-72" value="posti sala" style="text;html=1;align=center;verticalAlign=middle;resizable=0;points=[];autosize=1;strokeColor=none;fillColor=none;" vertex="1" parent="1">
          <mxGeometry x="230" y="751.5" width="70" height="30" as="geometry" />
        </mxCell>
        <mxCell id="BqIFalrDcJLT26Kmx2qs-73" value="id dipendenti" style="text;html=1;align=center;verticalAlign=middle;resizable=0;points=[];autosize=1;strokeColor=none;fillColor=none;" vertex="1" parent="1">
          <mxGeometry x="1027.5" y="70" width="90" height="30" as="geometry" />
        </mxCell>
        <mxCell id="BqIFalrDcJLT26Kmx2qs-74" value="agenzia" style="text;html=1;align=center;verticalAlign=middle;resizable=0;points=[];autosize=1;strokeColor=none;fillColor=none;" vertex="1" parent="1">
          <mxGeometry x="1171" y="238" width="70" height="30" as="geometry" />
        </mxCell>
        <mxCell id="BqIFalrDcJLT26Kmx2qs-75" value="postazione" style="text;html=1;align=center;verticalAlign=middle;resizable=0;points=[];autosize=1;strokeColor=none;fillColor=none;" vertex="1" parent="1">
          <mxGeometry x="832" y="311" width="80" height="30" as="geometry" />
        </mxCell>
        <mxCell id="BqIFalrDcJLT26Kmx2qs-76" value="" style="endArrow=none;html=1;rounded=0;" edge="1" parent="1">
          <mxGeometry width="50" height="50" relative="1" as="geometry">
            <mxPoint x="910" y="320" as="sourcePoint" />
            <mxPoint x="910" y="300" as="targetPoint" />
          </mxGeometry>
        </mxCell>
        <mxCell id="BqIFalrDcJLT26Kmx2qs-77" value="" style="ellipse;whiteSpace=wrap;html=1;aspect=fixed;fontSize=10;" vertex="1" parent="1">
          <mxGeometry x="903.5" y="319.5" width="13" height="13" as="geometry" />
        </mxCell>
        <mxCell id="BqIFalrDcJLT26Kmx2qs-79" value="" style="ellipse;whiteSpace=wrap;html=1;aspect=fixed;fontSize=10;" vertex="1" parent="1">
          <mxGeometry x="1199.5" y="260" width="13" height="13" as="geometry" />
        </mxCell>
        <mxCell id="BqIFalrDcJLT26Kmx2qs-80" value="" style="endArrow=none;html=1;rounded=0;entryX=0;entryY=0.5;entryDx=0;entryDy=0;" edge="1" parent="1" target="BqIFalrDcJLT26Kmx2qs-79">
          <mxGeometry width="50" height="50" relative="1" as="geometry">
            <mxPoint x="1160" y="270" as="sourcePoint" />
            <mxPoint x="1210" y="220" as="targetPoint" />
          </mxGeometry>
        </mxCell>
        <mxCell id="BqIFalrDcJLT26Kmx2qs-81" value="" style="ellipse;whiteSpace=wrap;html=1;aspect=fixed;fontSize=10;" vertex="1" parent="1">
          <mxGeometry x="1410.5" y="87" width="13" height="13" as="geometry" />
        </mxCell>
        <mxCell id="BqIFalrDcJLT26Kmx2qs-82" value="" style="ellipse;whiteSpace=wrap;html=1;aspect=fixed;fontSize=10;" vertex="1" parent="1">
          <mxGeometry x="1332" y="87" width="13" height="13" as="geometry" />
        </mxCell>
        <mxCell id="BqIFalrDcJLT26Kmx2qs-83" value="" style="ellipse;whiteSpace=wrap;html=1;aspect=fixed;fontSize=10;" vertex="1" parent="1">
          <mxGeometry x="1332" y="200" width="13" height="13" as="geometry" />
        </mxCell>
        <mxCell id="BqIFalrDcJLT26Kmx2qs-84" value="" style="ellipse;whiteSpace=wrap;html=1;aspect=fixed;fontSize=10;" vertex="1" parent="1">
          <mxGeometry x="1410.5" y="200" width="13" height="13" as="geometry" />
        </mxCell>
        <mxCell id="BqIFalrDcJLT26Kmx2qs-88" value="" style="endArrow=none;html=1;rounded=0;entryX=0.5;entryY=0;entryDx=0;entryDy=0;exitX=0.803;exitY=1.006;exitDx=0;exitDy=0;exitPerimeter=0;" edge="1" parent="1" source="B6hAdmat24an9LXhmFXZ-14" target="BqIFalrDcJLT26Kmx2qs-84">
          <mxGeometry width="50" height="50" relative="1" as="geometry">
            <mxPoint x="1390" y="180" as="sourcePoint" />
            <mxPoint x="1440" y="130" as="targetPoint" />
          </mxGeometry>
        </mxCell>
        <mxCell id="BqIFalrDcJLT26Kmx2qs-89" value="" style="endArrow=none;html=1;rounded=0;entryX=0.5;entryY=1;entryDx=0;entryDy=0;exitX=0.807;exitY=-0.014;exitDx=0;exitDy=0;exitPerimeter=0;" edge="1" parent="1" source="B6hAdmat24an9LXhmFXZ-14" target="BqIFalrDcJLT26Kmx2qs-81">
          <mxGeometry width="50" height="50" relative="1" as="geometry">
            <mxPoint x="1390" y="120" as="sourcePoint" />
            <mxPoint x="1440" y="70" as="targetPoint" />
          </mxGeometry>
        </mxCell>
        <mxCell id="BqIFalrDcJLT26Kmx2qs-91" value="" style="endArrow=none;html=1;rounded=0;exitX=0.5;exitY=0;exitDx=0;exitDy=0;" edge="1" parent="1" source="BqIFalrDcJLT26Kmx2qs-83">
          <mxGeometry width="50" height="50" relative="1" as="geometry">
            <mxPoint x="1290" y="230" as="sourcePoint" />
            <mxPoint x="1340" y="180" as="targetPoint" />
          </mxGeometry>
        </mxCell>
        <mxCell id="BqIFalrDcJLT26Kmx2qs-92" value="" style="endArrow=none;html=1;rounded=0;entryX=0.5;entryY=1;entryDx=0;entryDy=0;" edge="1" parent="1" target="BqIFalrDcJLT26Kmx2qs-82">
          <mxGeometry width="50" height="50" relative="1" as="geometry">
            <mxPoint x="1340" y="120" as="sourcePoint" />
            <mxPoint x="1390" y="70" as="targetPoint" />
          </mxGeometry>
        </mxCell>
        <mxCell id="BqIFalrDcJLT26Kmx2qs-93" value="" style="ellipse;whiteSpace=wrap;html=1;aspect=fixed;fontSize=10;" vertex="1" parent="1">
          <mxGeometry x="882" y="-95.5" width="13" height="13" as="geometry" />
        </mxCell>
        <mxCell id="BqIFalrDcJLT26Kmx2qs-94" value="" style="ellipse;whiteSpace=wrap;html=1;aspect=fixed;fontSize=10;" vertex="1" parent="1">
          <mxGeometry x="1064" y="-60" width="13" height="13" as="geometry" />
        </mxCell>
        <mxCell id="BqIFalrDcJLT26Kmx2qs-95" value="" style="ellipse;whiteSpace=wrap;html=1;aspect=fixed;fontSize=10;" vertex="1" parent="1">
          <mxGeometry x="1013" y="-26" width="13" height="13" as="geometry" />
        </mxCell>
        <mxCell id="BqIFalrDcJLT26Kmx2qs-96" value="" style="ellipse;whiteSpace=wrap;html=1;aspect=fixed;fontSize=10;" vertex="1" parent="1">
          <mxGeometry x="897" y="-26" width="13" height="13" as="geometry" />
        </mxCell>
        <mxCell id="BqIFalrDcJLT26Kmx2qs-97" value="" style="ellipse;whiteSpace=wrap;html=1;aspect=fixed;fontSize=10;" vertex="1" parent="1">
          <mxGeometry x="957.5" y="-11.5" width="13" height="13" as="geometry" />
        </mxCell>
        <mxCell id="BqIFalrDcJLT26Kmx2qs-98" value="" style="ellipse;whiteSpace=wrap;html=1;aspect=fixed;fontSize=10;" vertex="1" parent="1">
          <mxGeometry x="1066" y="-95.5" width="13" height="13" as="geometry" />
        </mxCell>
        <mxCell id="BqIFalrDcJLT26Kmx2qs-99" value="" style="ellipse;whiteSpace=wrap;html=1;aspect=fixed;fontSize=10;" vertex="1" parent="1">
          <mxGeometry x="885" y="-53" width="13" height="13" as="geometry" />
        </mxCell>
        <mxCell id="BqIFalrDcJLT26Kmx2qs-100" value="" style="endArrow=none;html=1;rounded=0;entryX=-0.006;entryY=0.202;entryDx=0;entryDy=0;entryPerimeter=0;" edge="1" parent="1">
          <mxGeometry width="50" height="50" relative="1" as="geometry">
            <mxPoint x="895" y="-88" as="sourcePoint" />
            <mxPoint x="920.28" y="-87.87999999999988" as="targetPoint" />
          </mxGeometry>
        </mxCell>
        <mxCell id="BqIFalrDcJLT26Kmx2qs-101" value="" style="endArrow=none;html=1;rounded=0;entryX=-0.001;entryY=0.898;entryDx=0;entryDy=0;entryPerimeter=0;" edge="1" parent="1" target="B6hAdmat24an9LXhmFXZ-13">
          <mxGeometry width="50" height="50" relative="1" as="geometry">
            <mxPoint x="898" y="-46" as="sourcePoint" />
            <mxPoint x="919" y="-46" as="targetPoint" />
          </mxGeometry>
        </mxCell>
        <mxCell id="BqIFalrDcJLT26Kmx2qs-102" value="" style="endArrow=none;html=1;rounded=0;entryX=0.039;entryY=1.005;entryDx=0;entryDy=0;entryPerimeter=0;exitX=1;exitY=0;exitDx=0;exitDy=0;" edge="1" parent="1" source="BqIFalrDcJLT26Kmx2qs-96" target="B6hAdmat24an9LXhmFXZ-13">
          <mxGeometry width="50" height="50" relative="1" as="geometry">
            <mxPoint x="907" y="-24" as="sourcePoint" />
            <mxPoint x="957" y="-74" as="targetPoint" />
          </mxGeometry>
        </mxCell>
        <mxCell id="BqIFalrDcJLT26Kmx2qs-103" value="" style="endArrow=none;html=1;rounded=0;exitX=0.997;exitY=0.308;exitDx=0;exitDy=0;exitPerimeter=0;" edge="1" parent="1" source="BqIFalrDcJLT26Kmx2qs-44">
          <mxGeometry width="50" height="50" relative="1" as="geometry">
            <mxPoint x="920" y="10" as="sourcePoint" />
            <mxPoint x="970" y="-40" as="targetPoint" />
          </mxGeometry>
        </mxCell>
        <mxCell id="BqIFalrDcJLT26Kmx2qs-104" value="" style="endArrow=none;html=1;rounded=0;exitX=0.817;exitY=1.013;exitDx=0;exitDy=0;exitPerimeter=0;" edge="1" parent="1" source="B6hAdmat24an9LXhmFXZ-13">
          <mxGeometry width="50" height="50" relative="1" as="geometry">
            <mxPoint x="969" y="24" as="sourcePoint" />
            <mxPoint x="1019" y="-26" as="targetPoint" />
          </mxGeometry>
        </mxCell>
        <mxCell id="BqIFalrDcJLT26Kmx2qs-105" value="" style="endArrow=none;html=1;rounded=0;entryX=0;entryY=0.5;entryDx=0;entryDy=0;" edge="1" parent="1" target="BqIFalrDcJLT26Kmx2qs-98">
          <mxGeometry width="50" height="50" relative="1" as="geometry">
            <mxPoint x="1041" y="-86" as="sourcePoint" />
            <mxPoint x="1091" y="-136" as="targetPoint" />
          </mxGeometry>
        </mxCell>
        <mxCell id="BqIFalrDcJLT26Kmx2qs-106" value="" style="endArrow=none;html=1;rounded=0;entryX=0;entryY=0.5;entryDx=0;entryDy=0;" edge="1" parent="1" target="BqIFalrDcJLT26Kmx2qs-94">
          <mxGeometry width="50" height="50" relative="1" as="geometry">
            <mxPoint x="1040" y="-52" as="sourcePoint" />
            <mxPoint x="1090" y="-102" as="targetPoint" />
          </mxGeometry>
        </mxCell>
        <mxCell id="BqIFalrDcJLT26Kmx2qs-107" value="" style="ellipse;whiteSpace=wrap;html=1;aspect=fixed;fontSize=10;" vertex="1" parent="1">
          <mxGeometry x="1189.5" y="497.5" width="13" height="13" as="geometry" />
        </mxCell>
        <mxCell id="BqIFalrDcJLT26Kmx2qs-108" value="" style="ellipse;whiteSpace=wrap;html=1;aspect=fixed;fontSize=10;" vertex="1" parent="1">
          <mxGeometry x="1189.5" y="527.5" width="13" height="13" as="geometry" />
        </mxCell>
        <mxCell id="BqIFalrDcJLT26Kmx2qs-109" value="" style="ellipse;whiteSpace=wrap;html=1;aspect=fixed;fontSize=10;" vertex="1" parent="1">
          <mxGeometry x="1061" y="568.5" width="13" height="13" as="geometry" />
        </mxCell>
        <mxCell id="BqIFalrDcJLT26Kmx2qs-110" value="" style="endArrow=none;html=1;rounded=0;entryX=0;entryY=0.5;entryDx=0;entryDy=0;" edge="1" parent="1" target="BqIFalrDcJLT26Kmx2qs-107">
          <mxGeometry width="50" height="50" relative="1" as="geometry">
            <mxPoint x="1160" y="507" as="sourcePoint" />
            <mxPoint x="1210" y="457" as="targetPoint" />
          </mxGeometry>
        </mxCell>
        <mxCell id="BqIFalrDcJLT26Kmx2qs-111" value="" style="endArrow=none;html=1;rounded=0;entryX=0;entryY=0.5;entryDx=0;entryDy=0;" edge="1" parent="1" target="BqIFalrDcJLT26Kmx2qs-108">
          <mxGeometry width="50" height="50" relative="1" as="geometry">
            <mxPoint x="1161.5" y="529" as="sourcePoint" />
            <mxPoint x="1211.5" y="479" as="targetPoint" />
          </mxGeometry>
        </mxCell>
        <mxCell id="BqIFalrDcJLT26Kmx2qs-112" value="" style="endArrow=none;html=1;rounded=0;entryX=0.223;entryY=1.017;entryDx=0;entryDy=0;entryPerimeter=0;" edge="1" parent="1" target="B6hAdmat24an9LXhmFXZ-15">
          <mxGeometry width="50" height="50" relative="1" as="geometry">
            <mxPoint x="1069" y="568" as="sourcePoint" />
            <mxPoint x="1119" y="518" as="targetPoint" />
          </mxGeometry>
        </mxCell>
        <mxCell id="BqIFalrDcJLT26Kmx2qs-113" value="" style="ellipse;whiteSpace=wrap;html=1;aspect=fixed;fontSize=10;" vertex="1" parent="1">
          <mxGeometry x="966" y="599.5" width="13" height="13" as="geometry" />
        </mxCell>
        <mxCell id="BqIFalrDcJLT26Kmx2qs-114" value="" style="ellipse;whiteSpace=wrap;html=1;aspect=fixed;fontSize=10;" vertex="1" parent="1">
          <mxGeometry x="956" y="639.5" width="13" height="13" as="geometry" />
        </mxCell>
        <mxCell id="BqIFalrDcJLT26Kmx2qs-115" value="" style="ellipse;whiteSpace=wrap;html=1;aspect=fixed;fontSize=10;" vertex="1" parent="1">
          <mxGeometry x="940" y="687" width="13" height="13" as="geometry" />
        </mxCell>
        <mxCell id="BqIFalrDcJLT26Kmx2qs-117" value="" style="endArrow=none;html=1;rounded=0;entryX=0;entryY=0.5;entryDx=0;entryDy=0;" edge="1" parent="1" target="BqIFalrDcJLT26Kmx2qs-113">
          <mxGeometry width="50" height="50" relative="1" as="geometry">
            <mxPoint x="920" y="610" as="sourcePoint" />
            <mxPoint x="970" y="560" as="targetPoint" />
          </mxGeometry>
        </mxCell>
        <mxCell id="BqIFalrDcJLT26Kmx2qs-118" value="" style="endArrow=none;html=1;rounded=0;entryX=0;entryY=0.5;entryDx=0;entryDy=0;" edge="1" parent="1" target="BqIFalrDcJLT26Kmx2qs-114">
          <mxGeometry width="50" height="50" relative="1" as="geometry">
            <mxPoint x="920" y="640" as="sourcePoint" />
            <mxPoint x="970" y="590" as="targetPoint" />
          </mxGeometry>
        </mxCell>
        <mxCell id="BqIFalrDcJLT26Kmx2qs-119" value="" style="endArrow=none;html=1;rounded=0;exitX=0;exitY=0.5;exitDx=0;exitDy=0;" edge="1" parent="1" source="BqIFalrDcJLT26Kmx2qs-115">
          <mxGeometry width="50" height="50" relative="1" as="geometry">
            <mxPoint x="850" y="710" as="sourcePoint" />
            <mxPoint x="900" y="660" as="targetPoint" />
          </mxGeometry>
        </mxCell>
        <mxCell id="BqIFalrDcJLT26Kmx2qs-120" value="" style="ellipse;whiteSpace=wrap;html=1;aspect=fixed;fontSize=10;" vertex="1" parent="1">
          <mxGeometry x="561" y="728.5" width="13" height="13" as="geometry" />
        </mxCell>
        <mxCell id="BqIFalrDcJLT26Kmx2qs-121" value="" style="ellipse;whiteSpace=wrap;html=1;aspect=fixed;fontSize=10;" vertex="1" parent="1">
          <mxGeometry x="561" y="768.5" width="13" height="13" as="geometry" />
        </mxCell>
        <mxCell id="BqIFalrDcJLT26Kmx2qs-124" value="" style="endArrow=none;html=1;rounded=0;entryX=0;entryY=0.5;entryDx=0;entryDy=0;" edge="1" parent="1" target="BqIFalrDcJLT26Kmx2qs-120">
          <mxGeometry width="50" height="50" relative="1" as="geometry">
            <mxPoint x="520" y="740" as="sourcePoint" />
            <mxPoint x="570" y="690" as="targetPoint" />
          </mxGeometry>
        </mxCell>
        <mxCell id="BqIFalrDcJLT26Kmx2qs-125" value="" style="endArrow=none;html=1;rounded=0;entryX=0;entryY=0.5;entryDx=0;entryDy=0;" edge="1" parent="1" target="BqIFalrDcJLT26Kmx2qs-121">
          <mxGeometry width="50" height="50" relative="1" as="geometry">
            <mxPoint x="520" y="770" as="sourcePoint" />
            <mxPoint x="570" y="720" as="targetPoint" />
          </mxGeometry>
        </mxCell>
        <mxCell id="BqIFalrDcJLT26Kmx2qs-126" value="" style="ellipse;whiteSpace=wrap;html=1;aspect=fixed;fontSize=10;" vertex="1" parent="1">
          <mxGeometry x="1024" y="78.5" width="13" height="13" as="geometry" />
        </mxCell>
        <mxCell id="BqIFalrDcJLT26Kmx2qs-128" value="" style="endArrow=none;html=1;rounded=0;entryX=0.5;entryY=1;entryDx=0;entryDy=0;" edge="1" parent="1" target="BqIFalrDcJLT26Kmx2qs-126">
          <mxGeometry width="50" height="50" relative="1" as="geometry">
            <mxPoint x="1030" y="120" as="sourcePoint" />
            <mxPoint x="1080" y="70" as="targetPoint" />
          </mxGeometry>
        </mxCell>
        <mxCell id="BqIFalrDcJLT26Kmx2qs-129" value="" style="ellipse;whiteSpace=wrap;html=1;aspect=fixed;fontSize=10;" vertex="1" parent="1">
          <mxGeometry x="750" y="120" width="13" height="13" as="geometry" />
        </mxCell>
        <mxCell id="BqIFalrDcJLT26Kmx2qs-130" value="" style="ellipse;whiteSpace=wrap;html=1;aspect=fixed;fontSize=10;" vertex="1" parent="1">
          <mxGeometry x="759" y="167" width="13" height="13" as="geometry" />
        </mxCell>
        <mxCell id="BqIFalrDcJLT26Kmx2qs-131" value="" style="endArrow=none;html=1;rounded=0;entryX=0;entryY=0.5;entryDx=0;entryDy=0;" edge="1" parent="1" target="BqIFalrDcJLT26Kmx2qs-129">
          <mxGeometry width="50" height="50" relative="1" as="geometry">
            <mxPoint x="720" y="130" as="sourcePoint" />
            <mxPoint x="770" y="80" as="targetPoint" />
          </mxGeometry>
        </mxCell>
        <mxCell id="BqIFalrDcJLT26Kmx2qs-132" value="" style="endArrow=none;html=1;rounded=0;entryX=0;entryY=0.5;entryDx=0;entryDy=0;" edge="1" parent="1" target="BqIFalrDcJLT26Kmx2qs-130">
          <mxGeometry width="50" height="50" relative="1" as="geometry">
            <mxPoint x="720" y="170" as="sourcePoint" />
            <mxPoint x="770" y="120" as="targetPoint" />
          </mxGeometry>
        </mxCell>
        <mxCell id="BqIFalrDcJLT26Kmx2qs-133" value="" style="ellipse;whiteSpace=wrap;html=1;aspect=fixed;fontSize=10;" vertex="1" parent="1">
          <mxGeometry x="628" y="328.5" width="13" height="13" as="geometry" />
        </mxCell>
        <mxCell id="BqIFalrDcJLT26Kmx2qs-134" value="" style="ellipse;whiteSpace=wrap;html=1;aspect=fixed;fontSize=10;" vertex="1" parent="1">
          <mxGeometry x="703" y="328" width="13" height="13" as="geometry" />
        </mxCell>
        <mxCell id="BqIFalrDcJLT26Kmx2qs-135" value="" style="endArrow=none;html=1;rounded=0;entryX=0.5;entryY=1;entryDx=0;entryDy=0;" edge="1" parent="1" target="BqIFalrDcJLT26Kmx2qs-133">
          <mxGeometry width="50" height="50" relative="1" as="geometry">
            <mxPoint x="640" y="360" as="sourcePoint" />
            <mxPoint x="690" y="310" as="targetPoint" />
          </mxGeometry>
        </mxCell>
        <mxCell id="BqIFalrDcJLT26Kmx2qs-136" value="" style="endArrow=none;html=1;rounded=0;entryX=0.5;entryY=1;entryDx=0;entryDy=0;" edge="1" parent="1" target="BqIFalrDcJLT26Kmx2qs-134">
          <mxGeometry width="50" height="50" relative="1" as="geometry">
            <mxPoint x="700" y="360" as="sourcePoint" />
            <mxPoint x="750" y="310" as="targetPoint" />
          </mxGeometry>
        </mxCell>
        <mxCell id="BqIFalrDcJLT26Kmx2qs-137" value="" style="ellipse;whiteSpace=wrap;html=1;aspect=fixed;fontSize=10;" vertex="1" parent="1">
          <mxGeometry x="-252" y="609" width="13" height="13" as="geometry" />
        </mxCell>
        <mxCell id="BqIFalrDcJLT26Kmx2qs-139" value="" style="ellipse;whiteSpace=wrap;html=1;aspect=fixed;fontSize=10;" vertex="1" parent="1">
          <mxGeometry x="-254" y="640.5" width="13" height="13" as="geometry" />
        </mxCell>
        <mxCell id="BqIFalrDcJLT26Kmx2qs-140" value="" style="endArrow=none;html=1;rounded=0;entryX=0;entryY=0.25;entryDx=0;entryDy=0;" edge="1" parent="1" target="BqIFalrDcJLT26Kmx2qs-18">
          <mxGeometry width="50" height="50" relative="1" as="geometry">
            <mxPoint x="-239" y="616" as="sourcePoint" />
            <mxPoint x="-189" y="566" as="targetPoint" />
          </mxGeometry>
        </mxCell>
        <mxCell id="BqIFalrDcJLT26Kmx2qs-141" value="" style="endArrow=none;html=1;rounded=0;entryX=0;entryY=0.75;entryDx=0;entryDy=0;" edge="1" parent="1" target="BqIFalrDcJLT26Kmx2qs-18">
          <mxGeometry width="50" height="50" relative="1" as="geometry">
            <mxPoint x="-241" y="648" as="sourcePoint" />
            <mxPoint x="-191" y="598" as="targetPoint" />
          </mxGeometry>
        </mxCell>
        <mxCell id="BqIFalrDcJLT26Kmx2qs-142" value="" style="ellipse;whiteSpace=wrap;html=1;aspect=fixed;fontSize=10;" vertex="1" parent="1">
          <mxGeometry x="89" y="666" width="13" height="13" as="geometry" />
        </mxCell>
        <mxCell id="BqIFalrDcJLT26Kmx2qs-143" value="" style="ellipse;whiteSpace=wrap;html=1;aspect=fixed;fontSize=10;" vertex="1" parent="1">
          <mxGeometry x="40" y="667" width="13" height="13" as="geometry" />
        </mxCell>
        <mxCell id="BqIFalrDcJLT26Kmx2qs-146" value="" style="endArrow=none;html=1;rounded=0;entryX=0.5;entryY=1;entryDx=0;entryDy=0;" edge="1" parent="1" target="BqIFalrDcJLT26Kmx2qs-143">
          <mxGeometry width="50" height="50" relative="1" as="geometry">
            <mxPoint x="50" y="720" as="sourcePoint" />
            <mxPoint x="100" y="670" as="targetPoint" />
          </mxGeometry>
        </mxCell>
        <mxCell id="BqIFalrDcJLT26Kmx2qs-147" value="" style="endArrow=none;html=1;rounded=0;entryX=0.5;entryY=1;entryDx=0;entryDy=0;" edge="1" parent="1" target="BqIFalrDcJLT26Kmx2qs-142">
          <mxGeometry width="50" height="50" relative="1" as="geometry">
            <mxPoint x="90" y="720" as="sourcePoint" />
            <mxPoint x="140" y="670" as="targetPoint" />
          </mxGeometry>
        </mxCell>
        <mxCell id="BqIFalrDcJLT26Kmx2qs-148" value="" style="ellipse;whiteSpace=wrap;html=1;aspect=fixed;fontSize=10;" vertex="1" parent="1">
          <mxGeometry x="393" y="568" width="13" height="13" as="geometry" />
        </mxCell>
        <mxCell id="BqIFalrDcJLT26Kmx2qs-149" value="" style="ellipse;whiteSpace=wrap;html=1;aspect=fixed;fontSize=10;" vertex="1" parent="1">
          <mxGeometry x="348.5" y="538" width="13" height="13" as="geometry" />
        </mxCell>
        <mxCell id="BqIFalrDcJLT26Kmx2qs-150" value="" style="ellipse;whiteSpace=wrap;html=1;aspect=fixed;fontSize=10;" vertex="1" parent="1">
          <mxGeometry x="354.5" y="499.5" width="13" height="13" as="geometry" />
        </mxCell>
        <mxCell id="BqIFalrDcJLT26Kmx2qs-153" value="" style="ellipse;whiteSpace=wrap;html=1;aspect=fixed;fontSize=10;" vertex="1" parent="1">
          <mxGeometry x="365" y="467.5" width="13" height="13" as="geometry" />
        </mxCell>
        <mxCell id="BqIFalrDcJLT26Kmx2qs-154" value="" style="ellipse;whiteSpace=wrap;html=1;aspect=fixed;fontSize=10;" vertex="1" parent="1">
          <mxGeometry x="427" y="446" width="13" height="13" as="geometry" />
        </mxCell>
        <mxCell id="BqIFalrDcJLT26Kmx2qs-156" value="" style="endArrow=none;html=1;rounded=0;entryX=0.117;entryY=1.022;entryDx=0;entryDy=0;entryPerimeter=0;" edge="1" parent="1" target="B6hAdmat24an9LXhmFXZ-4">
          <mxGeometry width="50" height="50" relative="1" as="geometry">
            <mxPoint x="404" y="570" as="sourcePoint" />
            <mxPoint x="454" y="520" as="targetPoint" />
          </mxGeometry>
        </mxCell>
        <mxCell id="BqIFalrDcJLT26Kmx2qs-157" value="" style="endArrow=none;html=1;rounded=0;entryX=-0.011;entryY=0.856;entryDx=0;entryDy=0;entryPerimeter=0;" edge="1" parent="1" target="B6hAdmat24an9LXhmFXZ-4">
          <mxGeometry width="50" height="50" relative="1" as="geometry">
            <mxPoint x="361" y="544" as="sourcePoint" />
            <mxPoint x="411" y="494" as="targetPoint" />
          </mxGeometry>
        </mxCell>
        <mxCell id="BqIFalrDcJLT26Kmx2qs-158" value="" style="endArrow=none;html=1;rounded=0;entryX=-0.01;entryY=0.432;entryDx=0;entryDy=0;entryPerimeter=0;" edge="1" parent="1" target="B6hAdmat24an9LXhmFXZ-4">
          <mxGeometry width="50" height="50" relative="1" as="geometry">
            <mxPoint x="367" y="506" as="sourcePoint" />
            <mxPoint x="417" y="456" as="targetPoint" />
          </mxGeometry>
        </mxCell>
        <mxCell id="BqIFalrDcJLT26Kmx2qs-159" value="" style="endArrow=none;html=1;rounded=0;entryX=0;entryY=0.155;entryDx=0;entryDy=0;entryPerimeter=0;" edge="1" parent="1" target="B6hAdmat24an9LXhmFXZ-4">
          <mxGeometry width="50" height="50" relative="1" as="geometry">
            <mxPoint x="378" y="476" as="sourcePoint" />
            <mxPoint x="428" y="426" as="targetPoint" />
          </mxGeometry>
        </mxCell>
        <mxCell id="BqIFalrDcJLT26Kmx2qs-160" value="" style="endArrow=none;html=1;rounded=0;entryX=0.296;entryY=-0.031;entryDx=0;entryDy=0;entryPerimeter=0;" edge="1" parent="1" target="B6hAdmat24an9LXhmFXZ-4">
          <mxGeometry width="50" height="50" relative="1" as="geometry">
            <mxPoint x="435" y="460" as="sourcePoint" />
            <mxPoint x="485" y="410" as="targetPoint" />
          </mxGeometry>
        </mxCell>
        <mxCell id="BqIFalrDcJLT26Kmx2qs-161" value="" style="ellipse;whiteSpace=wrap;html=1;aspect=fixed;fontSize=10;" vertex="1" parent="1">
          <mxGeometry x="487" y="325" width="13" height="13" as="geometry" />
        </mxCell>
        <mxCell id="BqIFalrDcJLT26Kmx2qs-162" value="" style="ellipse;whiteSpace=wrap;html=1;aspect=fixed;fontSize=10;" vertex="1" parent="1">
          <mxGeometry x="418.5" y="332.5" width="13" height="13" as="geometry" />
        </mxCell>
        <mxCell id="BqIFalrDcJLT26Kmx2qs-163" value="" style="ellipse;whiteSpace=wrap;html=1;aspect=fixed;fontSize=10;" vertex="1" parent="1">
          <mxGeometry x="360" y="289.5" width="13" height="13" as="geometry" />
        </mxCell>
        <mxCell id="BqIFalrDcJLT26Kmx2qs-164" value="" style="ellipse;whiteSpace=wrap;html=1;aspect=fixed;fontSize=10;" vertex="1" parent="1">
          <mxGeometry x="356" y="248.5" width="13" height="13" as="geometry" />
        </mxCell>
        <mxCell id="BqIFalrDcJLT26Kmx2qs-165" value="" style="endArrow=none;html=1;rounded=0;entryX=0;entryY=0.25;entryDx=0;entryDy=0;" edge="1" parent="1">
          <mxGeometry width="50" height="50" relative="1" as="geometry">
            <mxPoint x="369" y="255" as="sourcePoint" />
            <mxPoint x="400" y="254" as="targetPoint" />
          </mxGeometry>
        </mxCell>
        <mxCell id="BqIFalrDcJLT26Kmx2qs-166" value="" style="endArrow=none;html=1;rounded=0;entryX=-0.008;entryY=0.874;entryDx=0;entryDy=0;entryPerimeter=0;" edge="1" parent="1" target="B6hAdmat24an9LXhmFXZ-3">
          <mxGeometry width="50" height="50" relative="1" as="geometry">
            <mxPoint x="373" y="296" as="sourcePoint" />
            <mxPoint x="423" y="246" as="targetPoint" />
          </mxGeometry>
        </mxCell>
        <mxCell id="BqIFalrDcJLT26Kmx2qs-167" value="" style="endArrow=none;html=1;rounded=0;entryX=0.209;entryY=1.02;entryDx=0;entryDy=0;entryPerimeter=0;" edge="1" parent="1" target="B6hAdmat24an9LXhmFXZ-3">
          <mxGeometry width="50" height="50" relative="1" as="geometry">
            <mxPoint x="425" y="333" as="sourcePoint" />
            <mxPoint x="475" y="283" as="targetPoint" />
          </mxGeometry>
        </mxCell>
        <mxCell id="BqIFalrDcJLT26Kmx2qs-168" value="" style="endArrow=none;html=1;rounded=0;entryX=0.75;entryY=1;entryDx=0;entryDy=0;" edge="1" parent="1" target="B6hAdmat24an9LXhmFXZ-3">
          <mxGeometry width="50" height="50" relative="1" as="geometry">
            <mxPoint x="493" y="325" as="sourcePoint" />
            <mxPoint x="543" y="275" as="targetPoint" />
          </mxGeometry>
        </mxCell>
        <mxCell id="BqIFalrDcJLT26Kmx2qs-169" value="" style="ellipse;whiteSpace=wrap;html=1;aspect=fixed;fontSize=10;" vertex="1" parent="1">
          <mxGeometry x="147" y="480.5" width="13" height="13" as="geometry" />
        </mxCell>
        <mxCell id="BqIFalrDcJLT26Kmx2qs-170" value="" style="ellipse;whiteSpace=wrap;html=1;aspect=fixed;fontSize=10;" vertex="1" parent="1">
          <mxGeometry x="150" y="506" width="13" height="13" as="geometry" />
        </mxCell>
        <mxCell id="BqIFalrDcJLT26Kmx2qs-171" value="" style="ellipse;whiteSpace=wrap;html=1;aspect=fixed;fontSize=10;" vertex="1" parent="1">
          <mxGeometry x="136.5" y="548.5" width="13" height="13" as="geometry" />
        </mxCell>
        <mxCell id="BqIFalrDcJLT26Kmx2qs-172" value="" style="ellipse;whiteSpace=wrap;html=1;aspect=fixed;fontSize=10;" vertex="1" parent="1">
          <mxGeometry x="49" y="568" width="13" height="13" as="geometry" />
        </mxCell>
        <mxCell id="BqIFalrDcJLT26Kmx2qs-173" value="" style="ellipse;whiteSpace=wrap;html=1;aspect=fixed;fontSize=10;" vertex="1" parent="1">
          <mxGeometry x="-35" y="551.5" width="13" height="13" as="geometry" />
        </mxCell>
        <mxCell id="BqIFalrDcJLT26Kmx2qs-174" value="" style="endArrow=none;html=1;rounded=0;entryX=-0.006;entryY=0.878;entryDx=0;entryDy=0;entryPerimeter=0;" edge="1" parent="1" target="B6hAdmat24an9LXhmFXZ-8">
          <mxGeometry width="50" height="50" relative="1" as="geometry">
            <mxPoint x="-23" y="555" as="sourcePoint" />
            <mxPoint x="27" y="505" as="targetPoint" />
          </mxGeometry>
        </mxCell>
        <mxCell id="BqIFalrDcJLT26Kmx2qs-175" value="" style="endArrow=none;html=1;rounded=0;entryX=0.5;entryY=1;entryDx=0;entryDy=0;" edge="1" parent="1" target="B6hAdmat24an9LXhmFXZ-8">
          <mxGeometry width="50" height="50" relative="1" as="geometry">
            <mxPoint x="56" y="568" as="sourcePoint" />
            <mxPoint x="106" y="518" as="targetPoint" />
          </mxGeometry>
        </mxCell>
        <mxCell id="BqIFalrDcJLT26Kmx2qs-176" value="" style="endArrow=none;html=1;rounded=0;entryX=1;entryY=0.906;entryDx=0;entryDy=0;entryPerimeter=0;" edge="1" parent="1" target="B6hAdmat24an9LXhmFXZ-8">
          <mxGeometry width="50" height="50" relative="1" as="geometry">
            <mxPoint x="138" y="550" as="sourcePoint" />
            <mxPoint x="188" y="500" as="targetPoint" />
          </mxGeometry>
        </mxCell>
        <mxCell id="BqIFalrDcJLT26Kmx2qs-177" value="" style="endArrow=none;html=1;rounded=0;entryX=1;entryY=0.5;entryDx=0;entryDy=0;" edge="1" parent="1" target="B6hAdmat24an9LXhmFXZ-8">
          <mxGeometry width="50" height="50" relative="1" as="geometry">
            <mxPoint x="150" y="513" as="sourcePoint" />
            <mxPoint x="200" y="463" as="targetPoint" />
          </mxGeometry>
        </mxCell>
        <mxCell id="BqIFalrDcJLT26Kmx2qs-178" value="" style="endArrow=none;html=1;rounded=0;entryX=0.994;entryY=0.2;entryDx=0;entryDy=0;entryPerimeter=0;" edge="1" parent="1" target="B6hAdmat24an9LXhmFXZ-8">
          <mxGeometry width="50" height="50" relative="1" as="geometry">
            <mxPoint x="147" y="489" as="sourcePoint" />
            <mxPoint x="197" y="439" as="targetPoint" />
          </mxGeometry>
        </mxCell>
        <mxCell id="BqIFalrDcJLT26Kmx2qs-179" value="" style="ellipse;whiteSpace=wrap;html=1;aspect=fixed;fontSize=10;" vertex="1" parent="1">
          <mxGeometry x="-55.5" y="246.5" width="13" height="13" as="geometry" />
        </mxCell>
        <mxCell id="BqIFalrDcJLT26Kmx2qs-180" value="" style="ellipse;whiteSpace=wrap;html=1;aspect=fixed;fontSize=10;" vertex="1" parent="1">
          <mxGeometry x="-22" y="325" width="13" height="13" as="geometry" />
        </mxCell>
        <mxCell id="BqIFalrDcJLT26Kmx2qs-181" value="" style="ellipse;whiteSpace=wrap;html=1;aspect=fixed;fontSize=10;" vertex="1" parent="1">
          <mxGeometry x="11.5" y="205" width="13" height="13" as="geometry" />
        </mxCell>
        <mxCell id="BqIFalrDcJLT26Kmx2qs-182" value="" style="endArrow=none;html=1;rounded=0;entryX=0.5;entryY=1;entryDx=0;entryDy=0;exitX=0.157;exitY=-0.011;exitDx=0;exitDy=0;exitPerimeter=0;" edge="1" parent="1" source="B6hAdmat24an9LXhmFXZ-7" target="BqIFalrDcJLT26Kmx2qs-181">
          <mxGeometry width="50" height="50" relative="1" as="geometry">
            <mxPoint x="-20" y="270" as="sourcePoint" />
            <mxPoint x="30" y="220" as="targetPoint" />
          </mxGeometry>
        </mxCell>
        <mxCell id="BqIFalrDcJLT26Kmx2qs-183" value="" style="endArrow=none;html=1;rounded=0;entryX=0;entryY=0.25;entryDx=0;entryDy=0;" edge="1" parent="1" target="B6hAdmat24an9LXhmFXZ-7">
          <mxGeometry width="50" height="50" relative="1" as="geometry">
            <mxPoint x="-43" y="254" as="sourcePoint" />
            <mxPoint x="7" y="204" as="targetPoint" />
          </mxGeometry>
        </mxCell>
        <mxCell id="BqIFalrDcJLT26Kmx2qs-184" value="" style="endArrow=none;html=1;rounded=0;entryX=0.128;entryY=1.016;entryDx=0;entryDy=0;entryPerimeter=0;" edge="1" parent="1" target="B6hAdmat24an9LXhmFXZ-7">
          <mxGeometry width="50" height="50" relative="1" as="geometry">
            <mxPoint x="-10" y="330" as="sourcePoint" />
            <mxPoint x="40" y="280" as="targetPoint" />
          </mxGeometry>
        </mxCell>
        <mxCell id="BqIFalrDcJLT26Kmx2qs-185" value="" style="ellipse;whiteSpace=wrap;html=1;aspect=fixed;fontSize=10;" vertex="1" parent="1">
          <mxGeometry x="207" y="798.5" width="13" height="13" as="geometry" />
        </mxCell>
        <mxCell id="BqIFalrDcJLT26Kmx2qs-186" value="" style="ellipse;whiteSpace=wrap;html=1;aspect=fixed;fontSize=10;" vertex="1" parent="1">
          <mxGeometry x="258.5" y="775" width="13" height="13" as="geometry" />
        </mxCell>
        <mxCell id="BqIFalrDcJLT26Kmx2qs-187" value="" style="endArrow=none;html=1;rounded=0;entryX=0.5;entryY=1;entryDx=0;entryDy=0;exitX=0.145;exitY=-0.011;exitDx=0;exitDy=0;exitPerimeter=0;" edge="1" parent="1" source="B6hAdmat24an9LXhmFXZ-6" target="BqIFalrDcJLT26Kmx2qs-185">
          <mxGeometry width="50" height="50" relative="1" as="geometry">
            <mxPoint x="170" y="860" as="sourcePoint" />
            <mxPoint x="220" y="810" as="targetPoint" />
          </mxGeometry>
        </mxCell>
        <mxCell id="BqIFalrDcJLT26Kmx2qs-188" value="" style="endArrow=none;html=1;rounded=0;exitX=0.576;exitY=-0.008;exitDx=0;exitDy=0;exitPerimeter=0;" edge="1" parent="1" source="B6hAdmat24an9LXhmFXZ-6">
          <mxGeometry width="50" height="50" relative="1" as="geometry">
            <mxPoint x="215" y="838" as="sourcePoint" />
            <mxPoint x="265" y="788" as="targetPoint" />
          </mxGeometry>
        </mxCell>
        <mxCell id="BqIFalrDcJLT26Kmx2qs-189" value="" style="ellipse;whiteSpace=wrap;html=1;aspect=fixed;fontSize=10;" vertex="1" parent="1">
          <mxGeometry x="315" y="196.5" width="13" height="13" as="geometry" />
        </mxCell>
        <mxCell id="BqIFalrDcJLT26Kmx2qs-190" value="" style="ellipse;whiteSpace=wrap;html=1;aspect=fixed;fontSize=10;" vertex="1" parent="1">
          <mxGeometry x="248.5" y="216.5" width="13" height="13" as="geometry" />
        </mxCell>
        <mxCell id="BqIFalrDcJLT26Kmx2qs-191" value="" style="ellipse;whiteSpace=wrap;html=1;aspect=fixed;fontSize=10;" vertex="1" parent="1">
          <mxGeometry x="185" y="205" width="13" height="13" as="geometry" />
        </mxCell>
        <mxCell id="BqIFalrDcJLT26Kmx2qs-193" value="" style="endArrow=none;html=1;rounded=0;entryX=0.155;entryY=1.011;entryDx=0;entryDy=0;entryPerimeter=0;" edge="1" parent="1" target="B6hAdmat24an9LXhmFXZ-2">
          <mxGeometry width="50" height="50" relative="1" as="geometry">
            <mxPoint x="194" y="206" as="sourcePoint" />
            <mxPoint x="244" y="156" as="targetPoint" />
          </mxGeometry>
        </mxCell>
        <mxCell id="BqIFalrDcJLT26Kmx2qs-194" value="" style="endArrow=none;html=1;rounded=0;entryX=0.437;entryY=1.016;entryDx=0;entryDy=0;entryPerimeter=0;" edge="1" parent="1" target="B6hAdmat24an9LXhmFXZ-2">
          <mxGeometry width="50" height="50" relative="1" as="geometry">
            <mxPoint x="254" y="217" as="sourcePoint" />
            <mxPoint x="304" y="167" as="targetPoint" />
          </mxGeometry>
        </mxCell>
        <mxCell id="BqIFalrDcJLT26Kmx2qs-195" value="" style="endArrow=none;html=1;rounded=0;entryX=0.75;entryY=1;entryDx=0;entryDy=0;" edge="1" parent="1" target="B6hAdmat24an9LXhmFXZ-2">
          <mxGeometry width="50" height="50" relative="1" as="geometry">
            <mxPoint x="317" y="199" as="sourcePoint" />
            <mxPoint x="367" y="149" as="targetPoint" />
          </mxGeometry>
        </mxCell>
        <mxCell id="BqIFalrDcJLT26Kmx2qs-196" value="" style="ellipse;whiteSpace=wrap;html=1;aspect=fixed;fontSize=10;" vertex="1" parent="1">
          <mxGeometry x="348.5" y="-120" width="13" height="13" as="geometry" />
        </mxCell>
        <mxCell id="BqIFalrDcJLT26Kmx2qs-197" value="" style="ellipse;whiteSpace=wrap;html=1;aspect=fixed;fontSize=10;" vertex="1" parent="1">
          <mxGeometry x="349.5" y="-84" width="13" height="13" as="geometry" />
        </mxCell>
        <mxCell id="BqIFalrDcJLT26Kmx2qs-198" value="" style="ellipse;whiteSpace=wrap;html=1;aspect=fixed;fontSize=10;" vertex="1" parent="1">
          <mxGeometry x="157" y="-113" width="13" height="13" as="geometry" />
        </mxCell>
        <mxCell id="BqIFalrDcJLT26Kmx2qs-199" value="" style="ellipse;whiteSpace=wrap;html=1;aspect=fixed;fontSize=10;" vertex="1" parent="1">
          <mxGeometry x="157" y="-73" width="13" height="13" as="geometry" />
        </mxCell>
        <mxCell id="BqIFalrDcJLT26Kmx2qs-200" value="" style="ellipse;whiteSpace=wrap;html=1;aspect=fixed;fontSize=10;" vertex="1" parent="1">
          <mxGeometry x="214" y="-34.5" width="13" height="13" as="geometry" />
        </mxCell>
        <mxCell id="BqIFalrDcJLT26Kmx2qs-205" value="" style="endArrow=none;html=1;rounded=0;entryX=0;entryY=0.5;entryDx=0;entryDy=0;" edge="1" parent="1" target="BqIFalrDcJLT26Kmx2qs-196">
          <mxGeometry width="50" height="50" relative="1" as="geometry">
            <mxPoint x="320" y="-110" as="sourcePoint" />
            <mxPoint x="370" y="-160" as="targetPoint" />
          </mxGeometry>
        </mxCell>
        <mxCell id="BqIFalrDcJLT26Kmx2qs-206" value="" style="endArrow=none;html=1;rounded=0;entryX=0;entryY=0.5;entryDx=0;entryDy=0;" edge="1" parent="1" target="BqIFalrDcJLT26Kmx2qs-197">
          <mxGeometry width="50" height="50" relative="1" as="geometry">
            <mxPoint x="320" y="-80" as="sourcePoint" />
            <mxPoint x="370" y="-130" as="targetPoint" />
          </mxGeometry>
        </mxCell>
        <mxCell id="BqIFalrDcJLT26Kmx2qs-208" value="" style="endArrow=none;html=1;rounded=0;entryX=0.353;entryY=0.999;entryDx=0;entryDy=0;entryPerimeter=0;" edge="1" parent="1" target="B6hAdmat24an9LXhmFXZ-1">
          <mxGeometry width="50" height="50" relative="1" as="geometry">
            <mxPoint x="227" y="-29" as="sourcePoint" />
            <mxPoint x="277" y="-79" as="targetPoint" />
          </mxGeometry>
        </mxCell>
        <mxCell id="BqIFalrDcJLT26Kmx2qs-209" value="" style="endArrow=none;html=1;rounded=0;entryX=0;entryY=0.75;entryDx=0;entryDy=0;" edge="1" parent="1" target="B6hAdmat24an9LXhmFXZ-1">
          <mxGeometry width="50" height="50" relative="1" as="geometry">
            <mxPoint x="170" y="-66" as="sourcePoint" />
            <mxPoint x="220" y="-116" as="targetPoint" />
          </mxGeometry>
        </mxCell>
        <mxCell id="BqIFalrDcJLT26Kmx2qs-210" value="" style="endArrow=none;html=1;rounded=0;entryX=0;entryY=0.25;entryDx=0;entryDy=0;" edge="1" parent="1" target="B6hAdmat24an9LXhmFXZ-1">
          <mxGeometry width="50" height="50" relative="1" as="geometry">
            <mxPoint x="170" y="-106" as="sourcePoint" />
            <mxPoint x="220" y="-156" as="targetPoint" />
          </mxGeometry>
        </mxCell>
      </root>
    </mxGraphModel>
  </diagram>
</mxfile>
